<svg width="19" height="20" viewBox="0 0 19 20" fill="none" xmlns="http://www.w3.org/2000/svg">
<path d="M14.0508 1.04492C14.3164 1.04492 14.5039 1.10742 14.6133 1.23242C14.7305 1.34961 14.7891 1.55273 14.7891 1.8418V6.25977C14.7891 6.5332 14.7227 6.72852 14.5898 6.8457C14.457 6.96289 14.2305 7.02148 13.9102 7.02148C13.5898 7.02148 13.3633 6.96289 13.2305 6.8457C13.0977 6.72852 13.0312 6.5332 13.0312 6.25977V2.63867H9.90234V13.3613H12.668C12.9336 13.3613 13.1211 13.4238 13.2305 13.5488C13.3477 13.666 13.4062 13.8691 13.4062 14.1582C13.4062 14.4473 13.3477 14.6543 13.2305 14.7793C13.1211 14.8965 12.9336 14.9551 12.668 14.9551H5.37891C5.11328 14.9551 4.92188 14.8965 4.80469 14.7793C4.69531 14.6543 4.64062 14.4473 4.64062 14.1582C4.64062 13.8691 4.69531 13.666 4.80469 13.5488C4.92188 13.4238 5.11328 13.3613 5.37891 13.3613H8.14453V2.63867H5.01562V6.25977C5.01562 6.5332 4.94922 6.72852 4.81641 6.8457C4.68359 6.96289 4.45703 7.02148 4.13672 7.02148C3.81641 7.02148 3.58984 6.96289 3.45703 6.8457C3.32422 6.72852 3.25781 6.5332 3.25781 6.25977V1.8418C3.25781 1.55273 3.3125 1.34961 3.42188 1.23242C3.53906 1.10742 3.73047 1.04492 3.99609 1.04492H14.0508Z" fill="#2E2F38" style="fill:#2E2F38;fill:color(display-p3 0.1804 0.1843 0.2196);fill-opacity:1;"/>
<path d="M0.638821 17.7551C0.28601 17.7551 0 18.0237 0 18.3551C0 18.6864 0.28601 18.9551 0.638821 18.9551V17.7551ZM0.638821 18.9551C1.7929 18.9551 2.384 18.2929 2.79649 17.8502C3.22245 17.3929 3.46981 17.1551 3.99263 17.1551V15.9551C2.83854 15.9551 2.24745 16.6172 1.83496 17.06C1.40899 17.5172 1.16164 17.7551 0.638821 17.7551V18.9551Z" fill="#DC6B6E" style="fill:#DC6B6E;fill:color(display-p3 0.8627 0.4196 0.4314);fill-opacity:1;"/>
<path d="M3.99263 17.1551C4.51545 17.1551 4.7628 17.3929 5.18877 17.8502C5.60125 18.2929 6.19235 18.9551 7.34644 18.9551V17.7551C6.82362 17.7551 6.57626 17.5172 6.15029 17.06C5.73781 16.6172 5.14671 15.9551 3.99263 15.9551V17.1551Z" fill="#DC6B6E" style="fill:#DC6B6E;fill:color(display-p3 0.8627 0.4196 0.4314);fill-opacity:1;"/>
<path d="M7.34644 18.9551C8.50052 18.9551 9.09162 18.2932 9.5041 17.8504C9.93007 17.3932 10.1774 17.1553 10.7002 17.1553V15.9553C9.54616 15.9553 8.95506 16.6175 8.54258 17.0602C8.11661 17.5175 7.86926 17.7551 7.34644 17.7551V18.9551Z" fill="#DC6B6E" style="fill:#DC6B6E;fill:color(display-p3 0.8627 0.4196 0.4314);fill-opacity:1;"/>
<path d="M10.7002 17.1553C11.2231 17.1553 11.4704 17.3932 11.8964 17.8504C12.3089 18.2932 12.9 18.9553 14.0541 18.9553V17.7553C13.5312 17.7553 13.2839 17.5175 12.8579 17.0602C12.4454 16.6175 11.8543 15.9553 10.7002 15.9553V17.1553Z" fill="#DC6B6E" style="fill:#DC6B6E;fill:color(display-p3 0.8627 0.4196 0.4314);fill-opacity:1;"/>
<path d="M14.0541 18.9553C15.2081 18.9553 15.7992 18.2932 16.2117 17.8504C16.6377 17.3932 16.885 17.1553 17.4079 17.1553V15.9553C16.2538 15.9553 15.6627 16.6175 15.2502 17.0602C14.8242 17.5175 14.5769 17.7553 14.0541 17.7553V18.9553ZM17.4079 17.1553C17.7607 17.1553 18.0467 16.8867 18.0467 16.5553C18.0467 16.224 17.7607 15.9553 17.4079 15.9553V17.1553Z" fill="#DC6B6E" style="fill:#DC6B6E;fill:color(display-p3 0.8627 0.4196 0.4314);fill-opacity:1;"/>
</svg>
