<svg width="140" height="40" viewBox="0 0 140 40" fill="none" xmlns="http://www.w3.org/2000/svg">
<path d="M30.6484 1.58984C31.1797 1.58984 31.5547 1.71484 31.7734 1.96484C32.0078 2.19922 32.125 2.60547 32.125 3.18359V12.0195C32.125 12.5664 31.9922 12.957 31.7266 13.1914C31.4609 13.4258 31.0078 13.543 30.3672 13.543C29.7266 13.543 29.2734 13.4258 29.0078 13.1914C28.7422 12.957 28.6094 12.5664 28.6094 12.0195V4.77734H22.3516V26.2227H27.8828C28.4141 26.2227 28.7891 26.3477 29.0078 26.5977C29.2422 26.832 29.3594 27.2383 29.3594 27.8164C29.3594 28.3945 29.2422 28.8086 29.0078 29.0586C28.7891 29.293 28.4141 29.4102 27.8828 29.4102H13.3047C12.7734 29.4102 12.3906 29.293 12.1562 29.0586C11.9375 28.8086 11.8281 28.3945 11.8281 27.8164C11.8281 27.2383 11.9375 26.832 12.1562 26.5977C12.3906 26.3477 12.7734 26.2227 13.3047 26.2227H18.8359V4.77734H12.5781V12.0195C12.5781 12.5664 12.4453 12.957 12.1797 13.1914C11.9141 13.4258 11.4609 13.543 10.8203 13.543C10.1797 13.543 9.72656 13.4258 9.46094 13.1914C9.19531 12.957 9.0625 12.5664 9.0625 12.0195V3.18359C9.0625 2.60547 9.17188 2.19922 9.39062 1.96484C9.625 1.71484 10.0078 1.58984 10.5391 1.58984H30.6484Z" fill="#2E2F38" style="fill:#2E2F38;fill:color(display-p3 0.1804 0.1843 0.2196);fill-opacity:1;"/>
<path d="M64.6172 1.58984C65.1484 1.58984 65.5234 1.71484 65.7422 1.96484C65.9766 2.19922 66.0938 2.60547 66.0938 3.18359C66.0938 3.76172 65.9766 4.17578 65.7422 4.42578C65.5234 4.66016 65.1484 4.77734 64.6172 4.77734H63.0234L54.8672 17.8789V26.2227H60.1641C60.6953 26.2227 61.0703 26.3477 61.2891 26.5977C61.5234 26.832 61.6406 27.2383 61.6406 27.8164C61.6406 28.3945 61.5234 28.8086 61.2891 29.0586C61.0703 29.293 60.6953 29.4102 60.1641 29.4102H46.0547C45.5234 29.4102 45.1406 29.293 44.9062 29.0586C44.6875 28.8086 44.5781 28.3945 44.5781 27.8164C44.5781 27.2383 44.6875 26.832 44.9062 26.5977C45.1406 26.3477 45.5234 26.2227 46.0547 26.2227H51.3516V17.8789L43.2422 4.77734H41.6016C41.0703 4.77734 40.6875 4.66016 40.4531 4.42578C40.2344 4.17578 40.125 3.76172 40.125 3.18359C40.125 2.60547 40.2344 2.19922 40.4531 1.96484C40.6875 1.71484 41.0703 1.58984 41.6016 1.58984H49.4297C49.9609 1.58984 50.3359 1.71484 50.5547 1.96484C50.7891 2.19922 50.9062 2.60547 50.9062 3.18359C50.9062 3.76172 50.7891 4.17578 50.5547 4.42578C50.3359 4.66016 49.9609 4.77734 49.4297 4.77734H47.25L53.1094 14.3633L59.0156 4.77734H57.4922C56.9609 4.77734 56.5781 4.66016 56.3438 4.42578C56.125 4.17578 56.0156 3.76172 56.0156 3.18359C56.0156 2.60547 56.125 2.19922 56.3438 1.96484C56.5781 1.71484 56.9609 1.58984 57.4922 1.58984H64.6172Z" fill="#2E2F38" style="fill:#2E2F38;fill:color(display-p3 0.1804 0.1843 0.2196);fill-opacity:1;"/>
<path d="M88.3906 1.58984C90.4688 1.58984 92.25 1.95703 93.7344 2.69141C95.2188 3.42578 96.3438 4.46484 97.1094 5.80859C97.8906 7.15234 98.2812 8.70703 98.2812 10.4727C98.2812 12.2383 97.8906 13.7852 97.1094 15.1133C96.3438 16.4258 95.2188 17.4492 93.7344 18.1836C92.25 18.9023 90.4688 19.2617 88.3906 19.2617H82.8828V26.2227H88.5078C89.0391 26.2227 89.4141 26.3477 89.6328 26.5977C89.8672 26.832 89.9844 27.2383 89.9844 27.8164C89.9844 28.3945 89.8672 28.8086 89.6328 29.0586C89.4141 29.293 89.0391 29.4102 88.5078 29.4102H75.5703C75.0391 29.4102 74.6562 29.293 74.4219 29.0586C74.2031 28.8086 74.0938 28.3945 74.0938 27.8164C74.0938 27.2383 74.2031 26.832 74.4219 26.5977C74.6562 26.3477 75.0391 26.2227 75.5703 26.2227H79.3672V4.77734H75.5703C75.0391 4.77734 74.6562 4.66016 74.4219 4.42578C74.2031 4.17578 74.0938 3.76172 74.0938 3.18359C74.0938 2.60547 74.2031 2.19922 74.4219 1.96484C74.6562 1.71484 75.0391 1.58984 75.5703 1.58984H88.3906ZM82.8828 16.0742H87.8984C90.0703 16.0742 91.7266 15.582 92.8672 14.5977C94.0078 13.6133 94.5781 12.2383 94.5781 10.4727C94.5781 8.67578 94 7.27734 92.8438 6.27734C91.7031 5.27734 90.0547 4.77734 87.8984 4.77734H82.8828V16.0742Z" fill="#2E2F38" style="fill:#2E2F38;fill:color(display-p3 0.1804 0.1843 0.2196);fill-opacity:1;"/>
<path d="M118.609 1.07422C121.047 1.07422 123.195 1.67578 125.055 2.87891C126.93 4.08203 128.375 5.77734 129.391 7.96484C130.422 10.1367 130.938 12.6523 130.938 15.5117C130.938 18.3711 130.422 20.8945 129.391 23.082C128.375 25.2539 126.93 26.9414 125.055 28.1445C123.195 29.332 121.047 29.9258 118.609 29.9258C116.172 29.9258 114.016 29.332 112.141 28.1445C110.281 26.9414 108.836 25.2539 107.805 23.082C106.789 20.8945 106.281 18.3711 106.281 15.5117C106.281 12.6523 106.789 10.1367 107.805 7.96484C108.836 5.77734 110.281 4.08203 112.141 2.87891C114.016 1.67578 116.172 1.07422 118.609 1.07422ZM118.609 4.54297C116.891 4.54297 115.375 4.98828 114.062 5.87891C112.766 6.76953 111.758 8.04297 111.039 9.69922C110.336 11.3555 109.984 13.293 109.984 15.5117C109.984 17.7305 110.336 19.668 111.039 21.3242C111.758 22.9648 112.766 24.2305 114.062 25.1211C115.375 26.0117 116.891 26.457 118.609 26.457C120.328 26.457 121.836 26.0117 123.133 25.1211C124.445 24.2305 125.453 22.9648 126.156 21.3242C126.875 19.668 127.234 17.7305 127.234 15.5117C127.234 13.293 126.875 11.3555 126.156 9.69922C125.453 8.04297 124.445 6.76953 123.133 5.87891C121.836 4.98828 120.328 4.54297 118.609 4.54297Z" fill="#2E2F38" style="fill:#2E2F38;fill:color(display-p3 0.1804 0.1843 0.2196);fill-opacity:1;"/>
<path d="M6.27764 36.5258C5.57202 36.5258 5 37.063 5 37.7258C5 38.3885 5.57202 38.9258 6.27764 38.9258V36.5258ZM6.27764 38.9258C8.58581 38.9258 9.768 37.6015 10.593 36.716C11.4449 35.8015 11.9396 35.3258 12.9853 35.3258V32.9258C10.6771 32.9258 9.49489 34.25 8.66993 35.1356C7.81799 36.05 7.32328 36.5258 6.27764 36.5258V38.9258Z" fill="#DC6B6E" style="fill:#DC6B6E;fill:color(display-p3 0.8627 0.4196 0.4314);fill-opacity:1;"/>
<path d="M12.9853 35.3258C14.0309 35.3258 14.5256 35.8015 15.3775 36.716C16.2025 37.6015 17.3847 38.9258 19.6929 38.9258V36.5258C18.6472 36.5258 18.1525 36.05 17.3006 35.1356C16.4756 34.25 15.2934 32.9258 12.9853 32.9258V35.3258Z" fill="#DC6B6E" style="fill:#DC6B6E;fill:color(display-p3 0.8627 0.4196 0.4314);fill-opacity:1;"/>
<path d="M19.6929 38.9258C22.001 38.9258 23.1832 37.6015 24.0082 36.716C24.8601 35.8015 25.3548 35.3258 26.4005 35.3258V32.9258C24.0923 32.9258 22.9101 34.25 22.0852 35.1356C21.2332 36.05 20.7385 36.5258 19.6929 36.5258V38.9258Z" fill="#DC6B6E" style="fill:#DC6B6E;fill:color(display-p3 0.8627 0.4196 0.4314);fill-opacity:1;"/>
<path d="M26.4005 35.3258C27.4461 35.3258 27.9408 35.8015 28.7928 36.716C29.6177 37.6015 30.7999 38.9258 33.1081 38.9258V36.5258C32.0625 36.5258 31.5678 36.05 30.7158 35.1356C29.8909 34.25 28.7087 32.9258 26.4005 32.9258V35.3258Z" fill="#DC6B6E" style="fill:#DC6B6E;fill:color(display-p3 0.8627 0.4196 0.4314);fill-opacity:1;"/>
<path d="M33.1081 38.9258C35.4163 38.9258 36.5985 37.6015 37.4234 36.716C38.2754 35.8015 38.7701 35.3258 39.8157 35.3258V32.9258C37.5076 32.9258 36.3254 34.25 35.5004 35.1356C34.6485 36.05 34.1537 36.5258 33.1081 36.5258V38.9258Z" fill="#DC6B6E" style="fill:#DC6B6E;fill:color(display-p3 0.8627 0.4196 0.4314);fill-opacity:1;"/>
<path d="M39.8157 35.3258C40.8614 35.3258 41.3561 35.8015 42.208 36.716C43.033 37.6015 44.2152 38.9258 46.5233 38.9258V36.5258C45.4777 36.5258 44.983 36.05 44.1311 35.1356C43.3061 34.25 42.1239 32.9258 39.8157 32.9258V35.3258Z" fill="#DC6B6E" style="fill:#DC6B6E;fill:color(display-p3 0.8627 0.4196 0.4314);fill-opacity:1;"/>
<path d="M46.5233 38.9258C48.8315 38.9258 50.0137 37.6015 50.8387 36.716C51.6906 35.8015 52.1853 35.3258 53.231 35.3258V32.9258C50.9228 32.9258 49.7406 34.25 48.9156 35.1356C48.0637 36.05 47.569 36.5258 46.5233 36.5258V38.9258Z" fill="#DC6B6E" style="fill:#DC6B6E;fill:color(display-p3 0.8627 0.4196 0.4314);fill-opacity:1;"/>
<path d="M53.231 35.3258C54.2766 35.3258 54.7713 35.8015 55.6232 36.716C56.4482 37.6015 57.6304 38.9258 59.9386 38.9258V36.5258C58.8929 36.5258 58.3982 36.05 57.5463 35.1356C56.7213 34.25 55.5391 32.9258 53.231 32.9258V35.3258Z" fill="#DC6B6E" style="fill:#DC6B6E;fill:color(display-p3 0.8627 0.4196 0.4314);fill-opacity:1;"/>
<path d="M59.9386 38.9258C62.2467 38.9258 63.4289 37.6015 64.2539 36.716C65.1058 35.8015 65.6005 35.3258 66.6462 35.3258V32.9258C64.338 32.9258 63.1558 34.25 62.3309 35.1356C61.4789 36.05 60.9842 36.5258 59.9386 36.5258V38.9258Z" fill="#DC6B6E" style="fill:#DC6B6E;fill:color(display-p3 0.8627 0.4196 0.4314);fill-opacity:1;"/>
<path d="M66.6462 35.3258C67.6918 35.3258 68.1865 35.8015 69.0385 36.716C69.8634 37.6015 71.0456 38.9258 73.3538 38.9258V36.5258C72.3082 36.5258 71.8135 36.05 70.9615 35.1356C70.1366 34.25 68.9544 32.9258 66.6462 32.9258V35.3258Z" fill="#DC6B6E" style="fill:#DC6B6E;fill:color(display-p3 0.8627 0.4196 0.4314);fill-opacity:1;"/>
<path d="M73.3538 38.9258C75.662 38.9258 76.8442 37.6015 77.6691 36.716C78.5211 35.8015 79.0158 35.3258 80.0614 35.3258V32.9258C77.7533 32.9258 76.5711 34.25 75.7461 35.1356C74.8942 36.05 74.3994 36.5258 73.3538 36.5258V38.9258Z" fill="#DC6B6E" style="fill:#DC6B6E;fill:color(display-p3 0.8627 0.4196 0.4314);fill-opacity:1;"/>
<path d="M80.0614 35.3258C81.1071 35.3258 81.6018 35.8015 82.4537 36.716C83.2787 37.6015 84.4609 38.9258 86.769 38.9258V36.5258C85.7234 36.5258 85.2287 36.05 84.3768 35.1356C83.5518 34.25 82.3696 32.9258 80.0614 32.9258V35.3258Z" fill="#DC6B6E" style="fill:#DC6B6E;fill:color(display-p3 0.8627 0.4196 0.4314);fill-opacity:1;"/>
<path d="M86.769 38.9258C89.0772 38.9258 90.2594 37.6015 91.0844 36.716C91.9363 35.8015 92.431 35.3258 93.4767 35.3258V32.9258C91.1685 32.9258 89.9863 34.25 89.1613 35.1356C88.3094 36.05 87.8147 36.5258 86.769 36.5258V38.9258Z" fill="#DC6B6E" style="fill:#DC6B6E;fill:color(display-p3 0.8627 0.4196 0.4314);fill-opacity:1;"/>
<path d="M93.4767 35.3258C94.5223 35.3258 95.017 35.8015 95.8689 36.716C96.6939 37.6015 97.8761 38.9258 100.184 38.9258V36.5258C99.1386 36.5258 98.6439 36.05 97.792 35.1356C96.967 34.25 95.7848 32.9258 93.4767 32.9258V35.3258Z" fill="#DC6B6E" style="fill:#DC6B6E;fill:color(display-p3 0.8627 0.4196 0.4314);fill-opacity:1;"/>
<path d="M100.184 38.9258C102.492 38.9258 103.675 37.6015 104.5 36.716C105.352 35.8015 105.846 35.3258 106.892 35.3258V32.9258C104.584 32.9258 103.402 34.25 102.577 35.1356C101.725 36.05 101.23 36.5258 100.184 36.5258V38.9258Z" fill="#DC6B6E" style="fill:#DC6B6E;fill:color(display-p3 0.8627 0.4196 0.4314);fill-opacity:1;"/>
<path d="M106.892 35.3258C107.938 35.3258 108.432 35.8015 109.284 36.716C110.109 37.6015 111.291 38.9258 113.6 38.9258V36.5258C112.554 36.5258 112.059 36.05 111.207 35.1356C110.382 34.25 109.2 32.9258 106.892 32.9258V35.3258Z" fill="#DC6B6E" style="fill:#DC6B6E;fill:color(display-p3 0.8627 0.4196 0.4314);fill-opacity:1;"/>
<path d="M113.6 38.9258C115.908 38.9258 117.09 37.6015 117.915 36.716C118.767 35.8015 119.261 35.3258 120.307 35.3258V32.9258C117.999 32.9258 116.817 34.25 115.992 35.1356C115.14 36.05 114.645 36.5258 113.6 36.5258V38.9258Z" fill="#DC6B6E" style="fill:#DC6B6E;fill:color(display-p3 0.8627 0.4196 0.4314);fill-opacity:1;"/>
<path d="M120.307 35.3258C121.353 35.3258 121.847 35.8015 122.699 36.716C123.524 37.6015 124.707 38.9258 127.015 38.9258V36.5258C125.969 36.5258 125.474 36.05 124.622 35.1356C123.797 34.25 122.615 32.9258 120.307 32.9258V35.3258Z" fill="#DC6B6E" style="fill:#DC6B6E;fill:color(display-p3 0.8627 0.4196 0.4314);fill-opacity:1;"/>
<path d="M127.015 38.9258C129.323 38.9258 130.505 37.6015 131.33 36.716C132.182 35.8015 132.677 35.3258 133.722 35.3258V32.9258C131.414 32.9258 130.232 34.25 129.407 35.1356C128.555 36.05 128.06 36.5258 127.015 36.5258V38.9258ZM133.722 35.3258C134.428 35.3258 135 34.7885 135 34.1258C135 33.463 134.428 32.9258 133.722 32.9258V35.3258Z" fill="#DC6B6E" style="fill:#DC6B6E;fill:color(display-p3 0.8627 0.4196 0.4314);fill-opacity:1;"/>
</svg>
