<svg width="16" height="16" viewBox="0 0 16 16" fill="none" xmlns="http://www.w3.org/2000/svg">
<path d="M7.775 10.475L4.15 6.85C4.1 6.8 4.0625 6.74583 4.0375 6.6875C4.0125 6.62917 4 6.56667 4 6.5C4 6.36667 4.04583 6.25 4.1375 6.15C4.22917 6.05 4.35 6 4.5 6H12.1C12.25 6 12.3708 6.05 12.4625 6.15C12.5542 6.25 12.6 6.36667 12.6 6.5C12.6 6.53333 12.55 6.65 12.45 6.85L8.825 10.475C8.74167 10.5583 8.65833 10.6167 8.575 10.65C8.49167 10.6833 8.4 10.7 8.3 10.7C8.2 10.7 8.10833 10.6833 8.025 10.65C7.94167 10.6167 7.85833 10.5583 7.775 10.475Z" fill="#2E2F38" style="fill:#2E2F38;fill:color(display-p3 0.1804 0.1843 0.2196);fill-opacity:1;"/>
</svg>
