<svg width="1080" height="360" viewBox="0 0 1080 360" fill="none" xmlns="http://www.w3.org/2000/svg">
<path fill-rule="evenodd" clip-rule="evenodd" d="M225.467 36.4495L229.936 37.9148L234.432 39.4188L235.84 44.2908L237.248 49.1708L237.496 65.6748L237.304 82.3948L237.712 96.3548L237.568 110.315L237.776 115.307L237.848 119.963L235.656 124.539L234.064 129.227L233.08 130.531L231.728 131.403L230.024 131.459L228.608 132.323L227.992 131.595L227.608 132.219L225.352 131.451L223.16 132.195L217.752 130.635L212.312 129.227L210.72 124.539L209.12 119.859L208.528 102.867L208.48 85.3788L209.304 73.7308L208.96 62.1468L191.592 62.1868L173.832 61.9788L166.176 62.5628L159.112 62.6908L158.648 62.5228L159.864 62.7708L159.024 64.4908L159.464 66.2028L159.68 69.6348L159.496 73.0668L158.8 79.0748L159.16 85.0748L159.368 90.2268L159.584 95.3708L159.384 99.6588L159.44 103.947L158.896 120.675L159.392 137.403L158.864 139.979L159.752 142.555L158.608 161.427L159.608 180.299L159.696 199.595L159.08 218.899L158.728 226.051L159.512 233.243L163.08 233.835L166.808 233.347L175.552 234.259L184.288 233.139L193.856 233.355L203.368 232.931L207.808 234.979L212.312 236.483L213.72 241.355L215.12 246.227L213.72 251.203L212.312 256.171L207.808 257.571L203.312 258.979L196.432 258.555L189.904 259.339L185.24 259.435L180.576 259.427L177.08 259.691L173.576 259.291L165.704 258.939L157.832 259.507L145.88 259.259L133.928 259.419L129.264 259.731L124.6 259.395L117.312 258.659L110.024 259.203L107.4 258.363L104.776 259.395L95.9998 258.323L86.6238 259.611L82.0878 257.571L77.4958 256.171L76.1838 251.203L74.8718 246.227L76.1838 241.355L77.4958 236.483L82.0878 234.979L86.6878 233.483L88.3678 233.275L90.2238 232.939L109.584 233.051L128.944 233.059L130.064 233.203L130.648 233.467L131.048 218.419L130.232 203.459L131.224 187.155L130.84 170.859L131.712 153.275L130.368 135.683L131.64 122.387L130.272 109.091L130.208 105.659L130.872 102.227L131.28 91.9388L130.864 81.6428L130.328 78.6428L130.408 75.6348L130.208 68.4748L130.408 62.1388L127.784 61.2668L125.176 62.6268L111.032 61.7388L96.8878 62.1868L88.9118 61.8428L81.1198 62.1308L80.6318 71.2828L80.8798 80.4508L81.2158 85.8108L80.9278 91.1708L80.9918 103.195L81.0318 115.211L80.9758 117.579L80.9838 119.883L79.2798 124.539L77.6878 129.227L72.2478 130.635L66.8078 132.043L61.3758 130.635L55.9358 129.227L54.3438 124.539L52.7518 119.859L53.4398 100.659L52.4398 82.0428L52.2718 76.2108L52.0798 70.3788L53.1118 59.9308L51.9678 49.1068L54.0638 44.2908L55.3758 39.4188L59.9678 37.9148L64.5598 36.4188L81.6558 35.9308L99.1438 35.8508L110.408 36.7788L121.664 36.4028L135.344 36.8748L149.016 35.6348L162.288 35.7948L175.56 36.0188L180.384 36.9228L185.216 36.1468L202.512 37.1948L219.8 36.0748L222.216 36.1308L224.624 36.2588L224.96 36.5868L225.464 36.4508L225.467 36.4495Z" fill="url(#paint0_linear_2361_20696)" style=""/>
<path fill-rule="evenodd" clip-rule="evenodd" d="M497.605 36.4901L501.94 37.9153L506.436 39.4193L507.844 44.2913L509.252 49.1713L507.844 54.1393L506.436 59.1073L501.94 60.5153L497.436 61.9153H491.06H484.684L480.284 68.4113L476.988 75.2993L474.972 76.2193L475.212 78.5633L468.836 88.4113L462.42 98.2273L454.564 111.515L446.26 124.515L438.196 135.499L432.068 147.675L425.78 157.459L419.788 166.867L419.396 172.587L420.116 178.411L418.684 193.267L419.788 208.115L418.908 220.587L419.716 233.155L433.98 233.043L448.884 232.883L455.14 233.979L461.82 233.395L466.316 234.979L470.812 236.483L471.508 238.251L472.86 239.667L473.148 242.979L473.852 246.251L472.22 251.203L470.812 256.171L468.036 257.851L465.06 259.227L463.42 259.595L461.828 259.723L459.692 259.315L457.3 259.243L449.964 258.771L442.628 259.691L432.188 259.291L421.748 259.347L414.132 258.843L406.508 259.587L403.404 259.075L400.3 259.707L390.988 259.731L381.676 259.667L368.412 259.059L355.148 259.251L352.332 259.771L349.508 259.651L349.276 258.859L348.748 259.635L344.34 257.571L339.748 256.171L338.436 251.203L337.124 246.227L338.436 241.355L339.748 236.483L344.34 234.979L348.94 233.483L357.82 232.923L367.164 233.083L379.132 233.755L390.908 233.195L391.708 216.131L391.156 199.107L390.684 194.763L391.236 190.427L391.572 186.427L391.012 182.419L391.18 174.523L391.004 166.803L388.34 162.579L385.684 157.883L376.468 141.491L365.804 125.979L365.516 124.707L364.628 123.811L354.724 107.843L344.54 92.0353L339.556 84.6113L335.02 76.9073L333.348 73.9633L331.876 70.8833L328.804 66.4433L326.1 62.6193L319.876 61.9153H313.316L308.716 60.5153L304.124 59.1073L303.156 58.2113L302.476 57.0353L301.852 53.1073L301.172 49.1473L302.812 44.2913L304.124 39.4193L308.716 37.9153L313.316 36.4193L319.284 36.4753L325.212 36.0513L333.98 37.1713L342.748 36.2033L354.02 36.6353L365.292 36.0033L370.492 36.7233L376.044 35.7153L380.436 37.9153L384.94 39.4193L386.34 44.2913L387.748 49.1713L386.34 54.1393L384.94 59.1073L380.436 60.5153L375.94 61.9153H367.22H358.5L361.636 67.4753L365.724 72.2433L372.084 84.4273L379.756 95.8033L380.276 96.5473L380.98 97.1633L385.508 104.931L390.06 112.691L393.188 119.203L397.34 125.099L397.548 126.283L398.932 126.747L400.156 128.899L401.364 131.067L402.636 135.051L404.9 138.083L413.26 125.755L420.54 112.507L426.972 102.187L433.756 92.0833L439.212 82.4833L445.268 73.2513L448.564 69.4673L450.7 64.9713L450.588 63.8433L451.316 63.2353L451.932 62.3793L452.548 62.4833L446.532 61.9153H440.436L435.844 60.5153L431.252 59.1073L429.94 54.1393L428.628 49.1713L428.788 47.9073L428.5 46.5713L429.54 42.8593L430.772 38.8753L435.844 37.9153L440.436 36.4193L453.444 36.8513L466.084 36.2353L475.348 36.7233L484.612 36.2353L490.836 36.8833L497.604 36.4913L497.605 36.4901Z" fill="url(#paint1_linear_2361_20696)" style=""/>
<path fill-rule="evenodd" clip-rule="evenodd" d="M687.522 36.3526L704.685 38.3939L721.733 41.3699L726.181 42.9219L730.605 44.5139L735.005 47.6179L739.421 50.6099L747.981 60.7139L757.461 70.0579L762.069 86.3619L766.901 102.562L766.773 105.066L766.789 107.506L763.573 122.186L761.829 137.186L759.573 141.01L757.365 144.722L743.749 156.882L730.245 169.17L724.765 171.266L719.461 174.154L703.381 175.458L687.565 178.394L682.261 177.394L677.365 178.418L665.693 177.402L654.013 177.978L649.829 177.874L645.637 178.226L644.541 177.778L643.877 178.026L643.837 179.714L643.733 181.97L643.877 198.402L643.989 214.826L642.989 223.97L643.709 233.002L660.173 233.954L676.509 233.21L680.445 233.666L684.381 233.002L686.221 233.946L688.533 233.05L692.933 234.978L697.437 236.482L698.845 241.354L700.245 246.226L698.845 251.202L697.437 256.17L692.933 257.57L688.437 258.978L680.365 258.242L672.909 259.346L670.581 258.234L668.253 259.322L664.117 259.642L659.973 259.666L656.349 259.754L652.725 259.202L648.589 258.946L644.445 259.466L628.661 259.674L612.869 259.53L598.837 259.122L584.917 259.266L580.733 257.562L576.333 256.882L576.125 256.378L575.493 256.25L574.437 251.202L573.125 246.226L574.437 241.354L575.749 236.482L580.341 234.978L584.933 233.482H600.125H615.309L616.029 232.33L615.101 231.77L614.757 230.058L615.069 228.338L614.581 214.186L615.021 200.034L615.861 186.738L615.077 173.442L614.805 153.714L614.781 133.978L615.365 115.538L615.093 97.0899L615.189 96.2339L615.101 95.3779L615.605 80.7939L614.533 66.2099L614.901 63.8979L615.261 62.2499L600.125 61.9139H584.933L580.341 60.5139L575.749 59.1059L574.437 54.1379L573.125 49.1699L574.437 44.2899L575.749 39.4179L580.341 37.9139L584.933 36.4179L600.965 36.1299L617.237 36.3219L624.677 36.6179L632.109 36.3859L644.165 35.8899L656.221 36.2339L665.453 36.1459L674.685 35.8179L681.317 35.8739L687.525 36.3539L687.522 36.3526ZM643.459 151.843L652.365 152.058L661.493 151.498L672.357 152.69L683.557 152.21L690.125 151.442L696.669 151.218L710.317 146.682L723.077 140.042L726.621 137.762L728.757 134.13L733.429 120.986L736.637 107.378L736.213 106.954L736.301 106.626L731.997 92.3299L726.861 78.3379L725.173 76.0739L722.917 74.2979L711.829 69.2739L700.853 64.0739L696.181 62.7539L691.261 62.4179L687.421 61.9939L683.549 62.7059L666.557 62.5139L649.053 61.9379L646.349 61.6579L643.549 62.0499L643.301 64.2339L643.717 66.4339L642.925 82.0259L644.229 97.6099L643.997 107.33L644.165 117.042L643.821 119.754L643.637 122.466L643.101 136.25L643.933 150.034L642.701 150.858L643.461 151.842L643.459 151.843Z" fill="url(#paint2_linear_2361_20696)" style=""/>
<path fill-rule="evenodd" clip-rule="evenodd" d="M930.034 29.6038L942.335 31.6981L954.743 32.5621L956.887 33.6501L959.143 34.0741L961.623 35.4741L964.543 35.6181L968.543 38.0501L973.103 39.2341L977.183 42.2821L982.023 44.1461L991.751 52.7621L1001.55 61.3621L1007.84 73.4421L1015.92 84.2741L1016.66 84.6021L1016.54 85.306L1018.55 92.674L1022.37 99.41L1025.54 118.37L1028.77 137.306L1028.78 141.57L1029.17 145.834L1026.55 160.666L1026.46 175.738L1022.11 186.93L1019.87 198.658L1018.9 198.786L1019.46 199.49L1018.03 203.002L1016.66 206.634L1004.15 222.282L992.975 238.922L986.815 242.386L981.815 247.354L967.279 252.314L953.391 258.738L941.607 259.21L930.007 261.898L918.823 260.154L907.647 259.09L905.743 258.81L903.791 258.562L895.039 255.034L886.095 251.97L882.215 249.282L878.071 247.114L870.199 241.106L862.527 234.842L861.199 232.554L859.207 230.914L852.655 222.05L846.687 212.77L845.103 209.57L843.095 206.578L840.991 202.226L839.711 197.53L836.215 181.074L832.015 164.762L831.407 155.274L831.135 145.794L831.903 131.762L832.991 117.714L836.279 106.962L838.887 96.09L841.727 90.9541L843.399 85.3301L852.015 72.7061L860.175 59.7781L868.935 51.8981L878.183 44.6261L888.687 39.5221L899.271 34.5861L906.911 32.5461L914.663 31.0821L922.343 30.7301L930.031 29.6021L930.034 29.6038ZM930.034 58.3298L916.879 60.7941L903.735 63.354L898.951 66.4981L894.031 69.146L882.335 81.5861L871.679 94.9781L871.079 96.5301L870.463 98.1141L869.751 98.618L870.039 99.4741L866.543 110.77L862.959 122.034L861.583 132.562L861.255 143.17L861.647 144.49L861.775 145.81L860.631 146.202L861.727 146.578L860.791 152.034L861.791 157.418L862.319 160.586L862.551 163.77L863.207 171.77L865.591 179.41L866.695 186.114L869.951 192.09L872.111 196.33L873.879 200.818L877.831 205.626L881.039 210.962L887.463 216.666L893.679 222.61L898.063 224.586L902.199 226.762L913.519 230.458L925.271 232.546L927.567 232.922L929.967 233.13L942.207 230.89L954.367 228.442L960.143 225.418L965.751 222.234L978.359 208.346L989.375 193.082L989.991 192.834L990.055 192.178L991.623 188.194L993.247 184.25L996.255 173.322L997.335 162.034L999.303 154.01L998.535 145.826L996.631 130.778L995.399 115.666L992.335 107.69L990.239 99.354L988.751 95.6421L986.815 92.154L978.527 81.882L969.983 71.826L968.551 69.6901L966.183 68.7541L954.055 64.626L942.311 59.7141L936.279 58.2101L930.031 58.3301L930.034 58.3298Z" fill="url(#paint3_linear_2361_20696)" style=""/>
<path d="M30.3171 314.911L25.112 320.064L20 324.864L25.112 329.664L30.224 334.464L36.936 333.096L43.72 332.184L48.736 329.504L53.728 326.808L57.904 323.424L61.888 319.8L63.608 318.568L64.632 316.608L74.312 311.224L83.7061 305.695L85.792 305.704L87.888 305.632L95.568 311.088L103.04 316.76L117.224 325.272L131.44 333.696L134.4 334.352L137.463 334.487L143.152 333.896L148.592 332.792L160.272 324.736L171.864 316.52L175.392 313.552L178.496 310.08L179.968 309.08L181.352 307.84L186.264 306.6L191.064 305.6L200.776 311.224L210.344 316.784L217.696 322.784L224.776 329.008L234.704 332.072L244.649 334.567L253.08 332.488L261.368 331.016L268.384 326.008L275.36 320.944L277.32 318.816L279.2 316.504L288.96 311.224L298.382 305.847L308.096 311.224L317.664 316.784L328.376 324.416L339.008 332.064L345.576 333.112L351.954 334.631L363.272 330.824L374.44 327.648L380.704 322.4L386.656 316.72L391.176 312.376L395.904 308.216L401.008 307.376L405.776 305.592L410.872 307.064L416.056 308.184L420.296 312.768L425.184 316.544L434.336 324.488L444.16 331.56L451.872 332.744L459.501 334.503L470.312 331.544L480.936 328.064L483.816 326.552L486.112 324.168L489.912 320.328L493.824 316.488L503.6 311.224L513.168 305.664L522.736 311.224L532.312 316.784L535.52 319.856L538.704 322.792L552.696 328.752L566.864 334.232L584.096 325.624L601.352 316.784L610.92 311.224L620.488 305.664L630.064 311.224L639.632 316.784L652.304 324.784L664.72 333.112L669.36 333.912L674.184 334.847L691.416 325.624L708.672 316.784L718.248 311.224L727.55 305.735L731.016 306.272L734.288 306.592L740.496 311.856L747.04 316.68L754.792 323.12L762.464 329.608L768.488 332L774.792 333.672L778.112 334L781.41 334.535L795.76 329.136L809.768 323.112L812.776 319.848L815.912 316.664L825.568 311.224L835.136 305.664L844.704 311.224L854.272 316.784L861.48 322.952L868.632 329.152L878.608 332.216L888.672 334.631L904.592 327.568L920.072 320.032L921.912 318.648L923.096 316.568L924.568 315.704L925.376 314.072L934.104 310.208L942.12 305.464L945.696 306.048L948.976 306.512L955.472 311.44L961.816 316.472L973.576 324.84L985.448 333.04L990.712 334.16L996.088 334.479L1006.41 331.84L1016.56 328.744L1019.46 327.344L1021.95 325.232L1026.5 321.208L1030.46 316.528L1040.21 311.224L1049.4 305.775L1051.9 304.992L1053.86 304.48L1057 300.368L1059.85 296.104L1054.89 291.264L1049.8 286.728L1034.32 293.528L1018.79 300.424L1016.91 302.168L1015.43 304.312L1014.21 305.312L1013.16 306.488L1010.07 309.48L1006.71 312.168L1001.4 313.696L996.12 315.264L992.088 314.8L988.048 313.904L982.568 308.936L976.784 304.424L962.72 295.744L948.68 286.992L945.608 286.44L942.456 286.464L932.536 288.576L922.856 291.576L917.728 295.728L912.32 299.616L909.96 301.72L908.072 304.312L900.448 309.208L893.512 315.088L891.104 315.368L888.488 315.4L885.488 314.432L882.056 314.2L875.744 309.312L869.576 304.28L852.4 295.304L835.136 286.464L826.864 288.144L818.656 290.024L815.776 291.432L813.064 293.144L806.648 298.424L800.832 304.4L793.96 309.216L787.608 314.76L784.408 314.568L781.656 315.32L771.904 309.704L762.336 304.144L749.344 296.04L736.6 287.576L732.272 286.856L727.816 286.464L722.8 287.2L717.8 287.784L712.208 290.296L706.48 292.52L703.432 294.992L700.2 297.248L696.568 300.512L693.4 304.304L683.72 309.704L674.152 315.264L664.584 309.704L655.016 304.144L647.096 297.432L639.072 290.864L629.776 288.728L620.488 286.464L614.384 287.44L608.328 288.56L603.824 290.176L599.656 292.528L594.152 296.68L588.992 301.312L587.464 302.688L586.008 304.184L576.4 309.704L566.592 315.504L557.264 309.704L547.696 304.144L538.648 296.56L529.04 289.736L521.144 288.04L513.168 286.464L497.44 293.856L481.776 301.352L480.12 302.56L478.824 304.312L475.752 306.752L473.192 309.712L466.432 312.688L459.744 315.416L449.936 309.704L440.368 304.136L437.968 302.072L435.92 299.784L420.928 293.04L405.776 286.672L395.784 288.816L385.912 291.776L378.392 297.672L371.368 304.208L361.752 309.704L352.184 315.264L342.616 309.704L333.048 304.144L326.4 298.376L319.856 292.496L318.64 291.4L316.936 291.184L315.56 290.216L314 289.8L306.312 287.888L298.688 286.672L289.152 288.752L279.816 291.056L272 297.68L264.064 304.24L254.432 309.704L244.84 315.288L235.296 309.704L225.728 304.144L216.736 297.152L207.936 289.92L199.528 288.392L191.208 286.464L175.536 293.968L159.728 301.176L158.128 302.536L156.816 304.36L147.112 309.704L137.544 315.264L132.84 314.16L128.12 313.024L123.208 308.632L118.304 304.256L115.152 300.736L111.576 297.72L105.128 293.224L98.4 289.12L91.12 287.976L83.872 286.568L69.424 292.032L55.352 298.456L52.456 301.312L49.392 304.192L39.792 309.704L30.3171 314.911Z" fill="url(#paint4_linear_2361_20696)" style=""/>
<defs>
<linearGradient id="paint0_linear_2361_20696" x1="144.908" y1="35.6348" x2="144.908" y2="259.731" gradientUnits="userSpaceOnUse">
<stop stop-color="#2E2F38" style="stop-color:#2E2F38;stop-color:color(display-p3 0.1804 0.1843 0.2196);stop-opacity:1;"/>
<stop offset="1" stop-color="#494A54" style="stop-color:#494A54;stop-color:color(display-p3 0.2863 0.2902 0.3294);stop-opacity:1;"/>
</linearGradient>
<linearGradient id="paint1_linear_2361_20696" x1="405.212" y1="35.7153" x2="405.212" y2="259.771" gradientUnits="userSpaceOnUse">
<stop stop-color="#2E2F38" style="stop-color:#2E2F38;stop-color:color(display-p3 0.1804 0.1843 0.2196);stop-opacity:1;"/>
<stop offset="1" stop-color="#494A54" style="stop-color:#494A54;stop-color:color(display-p3 0.2863 0.2902 0.3294);stop-opacity:1;"/>
</linearGradient>
<linearGradient id="paint2_linear_2361_20696" x1="670.013" y1="35.8179" x2="670.013" y2="259.754" gradientUnits="userSpaceOnUse">
<stop stop-color="#2E2F38" style="stop-color:#2E2F38;stop-color:color(display-p3 0.1804 0.1843 0.2196);stop-opacity:1;"/>
<stop offset="1" stop-color="#494A54" style="stop-color:#494A54;stop-color:color(display-p3 0.2863 0.2902 0.3294);stop-opacity:1;"/>
</linearGradient>
<linearGradient id="paint3_linear_2361_20696" x1="930.151" y1="29.6021" x2="930.151" y2="261.898" gradientUnits="userSpaceOnUse">
<stop stop-color="#2E2F38" style="stop-color:#2E2F38;stop-color:color(display-p3 0.1804 0.1843 0.2196);stop-opacity:1;"/>
<stop offset="1" stop-color="#494A54" style="stop-color:#494A54;stop-color:color(display-p3 0.2863 0.2902 0.3294);stop-opacity:1;"/>
</linearGradient>
<linearGradient id="paint4_linear_2361_20696" x1="20" y1="310.644" x2="1059.85" y2="310.644" gradientUnits="userSpaceOnUse">
<stop stop-color="#DC6B6E" style="stop-color:#DC6B6E;stop-color:color(display-p3 0.8627 0.4196 0.4314);stop-opacity:1;"/>
<stop offset="1" stop-color="#AC5254" style="stop-color:#AC5254;stop-color:color(display-p3 0.6745 0.3216 0.3294);stop-opacity:1;"/>
</linearGradient>
</defs>
</svg>
