<svg width="208" height="62" viewBox="0 0 208 62" fill="none" xmlns="http://www.w3.org/2000/svg">
<path fill-rule="evenodd" clip-rule="evenodd" d="M41.0936 2.2899L41.9874 2.58295L42.8866 2.88375L43.1681 3.85815L43.4497 4.83415L43.4993 8.13495L43.4609 11.479L43.5426 14.271L43.5138 17.063L43.5553 18.0614L43.5698 18.9926L43.1314 19.9078L42.8129 20.8454L42.6161 21.1062L42.3457 21.2806L42.0049 21.2918L41.7217 21.4646L41.5986 21.319L41.5217 21.4438L41.0706 21.2902L40.6322 21.439L39.5505 21.127L38.4625 20.8454L38.1441 19.9078L37.8241 18.9718L37.7057 15.5734L37.6961 12.0758L37.8609 9.74615L37.7922 7.42935L34.3185 7.43735L30.7665 7.39575L29.2353 7.51255L27.8225 7.53815L27.7297 7.50455L27.973 7.55415L27.8049 7.89815L27.8929 8.24055L27.9361 8.92695L27.8993 9.61335L27.7601 10.815L27.8321 12.015L27.8737 13.0454L27.9169 14.0742L27.8769 14.9318L27.8881 15.7894L27.7793 19.135L27.8786 22.4806L27.773 22.9958L27.9505 23.511L27.7217 27.2854L27.9217 31.0598L27.9393 34.919L27.8161 38.7798L27.7457 40.2102L27.9025 41.6486L28.6161 41.767L29.3617 41.6694L31.1105 41.8518L32.8578 41.6278L34.7713 41.671L36.6737 41.5862L37.5617 41.9958L38.4625 42.2966L38.7441 43.271L39.0241 44.2454L38.7441 45.2406L38.4625 46.2342L37.5617 46.5142L36.6625 46.7958L35.2866 46.711L33.981 46.8678L33.0482 46.887L32.1153 46.8854L31.4161 46.9382L30.7153 46.8582L29.1409 46.7878L27.5665 46.9014L25.1762 46.8518L22.7857 46.8838L21.8529 46.9462L20.9202 46.879L19.4625 46.7318L18.0049 46.8406L17.4801 46.6726L16.9553 46.879L15.2001 46.6646L13.3249 46.9222L12.4177 46.5142L11.4993 46.2342L11.2369 45.2406L10.9745 44.2454L11.2369 43.271L11.4993 42.2966L12.4177 41.9958L13.3377 41.6966L13.6737 41.655L14.0449 41.5878L17.9169 41.6102L21.7889 41.6118L22.0129 41.6406L22.1297 41.6934L22.2097 38.6838L22.0465 35.6918L22.2449 32.431L22.1681 29.1718L22.3426 25.655L22.0737 22.1366L22.3281 19.4774L22.0545 16.8182L22.0417 16.1318L22.1745 15.4454L22.2561 13.3878L22.173 11.3286L22.0657 10.7286L22.0817 10.127L22.0417 8.69495L22.0817 7.42775L21.5569 7.25335L21.0353 7.52535L18.2065 7.34775L15.3777 7.43735L13.7825 7.36855L12.2241 7.42615L12.1265 9.25655L12.1761 11.0902L12.2433 12.1622L12.1857 13.2342L12.1985 15.639L12.2065 18.0422L12.1953 18.5158L12.1969 18.9766L11.8561 19.9078L11.5377 20.8454L10.4497 21.127L9.36175 21.4086L8.27535 21.127L7.18735 20.8454L6.86895 19.9078L6.55055 18.9718L6.68815 15.1318L6.48815 11.4086L6.45455 10.2422L6.41615 9.07575L6.62255 6.98615L6.39375 4.82135L6.81295 3.85815L7.07535 2.88375L7.99375 2.58295L8.91215 2.28375L12.3313 2.18615L15.8289 2.17015L18.0817 2.35575L20.3329 2.28055L23.0689 2.37495L25.8033 2.12695L28.4577 2.15895L31.1122 2.20375L32.0769 2.38455L33.0433 2.22935L36.5026 2.43895L39.9601 2.21495L40.4433 2.22615L40.925 2.25175L40.9922 2.31735L41.093 2.29015L41.0936 2.2899Z" fill="url(#paint0_linear_2239_11899)" style=""/>
<path fill-rule="evenodd" clip-rule="evenodd" d="M95.5211 2.29789L96.388 2.58294L97.2872 2.88374L97.5688 3.85814L97.8504 4.83414L97.5688 5.82774L97.2872 6.82134L96.388 7.10294L95.4872 7.38294H94.212H92.9368L92.0568 8.68214L91.3976 10.0597L90.9944 10.2437L91.0424 10.7125L89.7672 12.6821L88.484 14.6453L86.9128 17.3029L85.252 19.9029L83.6392 22.0997L82.4136 24.5349L81.156 26.4917L79.9576 28.3733L79.8792 29.5173L80.0232 30.6821L79.7368 33.6533L79.9576 36.6229L79.7816 39.1173L79.9432 41.6309L82.796 41.6085L85.7768 41.5765L87.028 41.7957L88.364 41.6789L89.2632 41.9957L90.1624 42.2965L90.3016 42.6501L90.572 42.9333L90.6296 43.5957L90.7704 44.2501L90.444 45.2405L90.1624 46.2341L89.6072 46.5701L89.012 46.8453L88.684 46.9189L88.3656 46.9445L87.9384 46.8629L87.46 46.8485L85.9928 46.7541L84.5256 46.9381L82.4376 46.8581L80.3496 46.8693L78.8264 46.7685L77.3016 46.9173L76.6808 46.8149L76.06 46.9413L74.1976 46.9461L72.3352 46.9333L69.6824 46.8117L67.0296 46.8501L66.4664 46.9541L65.9016 46.9301L65.8552 46.7717L65.7496 46.9269L64.868 46.5141L63.9496 46.2341L63.6872 45.2405L63.4248 44.2453L63.6872 43.2709L63.9496 42.2965L64.868 41.9957L65.788 41.6965L67.564 41.5845L69.4328 41.6165L71.8264 41.7509L74.1816 41.6389L74.3416 38.2261L74.2312 34.8213L74.1368 33.9525L74.2472 33.0853L74.3144 32.2853L74.2024 31.4837L74.236 29.9045L74.2008 28.3605L73.668 27.5157L73.1368 26.5765L71.2936 23.2981L69.1608 20.1957L69.1032 19.9413L68.9256 19.7621L66.9448 16.5685L64.908 13.4069L63.9112 11.9221L63.004 10.3813L62.6696 9.79254L62.3752 9.17654L61.7608 8.28854L61.22 7.52374L59.9752 7.38294H58.6632L57.7432 7.10294L56.8248 6.82134L56.6312 6.64214L56.4952 6.40694L56.3704 5.62134L56.2344 4.82934L56.5624 3.85814L56.8248 2.88374L57.7432 2.58294L58.6632 2.28374L59.8568 2.29494L61.0424 2.21014L62.796 2.43414L64.5496 2.24054L66.804 2.32694L69.0584 2.20054L70.0984 2.34454L71.2088 2.14294L72.0872 2.58294L72.988 2.88374L73.268 3.85814L73.5496 4.83414L73.268 5.82774L72.988 6.82134L72.0872 7.10294L71.188 7.38294H69.444H67.7L68.3272 8.49494L69.1448 9.44854L70.4168 11.8853L71.9512 14.1605L72.0552 14.3093L72.196 14.4325L73.1016 15.9861L74.012 17.5381L74.6376 18.8405L75.468 20.0197L75.5096 20.2565L75.7864 20.3493L76.0312 20.7797L76.2728 21.2133L76.5272 22.0101L76.98 22.6165L78.652 20.1509L80.108 17.5013L81.3944 15.4373L82.7512 13.4165L83.8424 11.4965L85.0536 9.65014L85.7128 8.89334L86.14 7.99414L86.1176 7.76854L86.2632 7.64694L86.3864 7.47574L86.5096 7.49654L85.3064 7.38294H84.0872L83.1688 7.10294L82.2504 6.82134L81.988 5.82774L81.7256 4.83414L81.7576 4.58134L81.7 4.31414L81.908 3.57174L82.1544 2.77494L83.1688 2.58294L84.0872 2.28374L86.6888 2.37014L89.2168 2.24694L91.0696 2.34454L92.9224 2.24694L94.1672 2.37654L95.5208 2.29814L95.5211 2.29789Z" fill="url(#paint1_linear_2239_11899)" style=""/>
<path fill-rule="evenodd" clip-rule="evenodd" d="M133.504 2.27065L136.937 2.6789L140.347 3.2741L141.236 3.5845L142.121 3.9029L143.001 4.5237L143.884 5.1221L145.596 7.1429L147.492 9.0117L148.414 12.2725L149.38 15.5125L149.355 16.0133L149.358 16.5013L148.715 19.4373L148.366 22.4373L147.915 23.2021L147.473 23.9445L144.75 26.3765L142.049 28.8341L140.953 29.2533L139.892 29.8309L136.676 30.0917L133.513 30.6789L132.452 30.4789L131.473 30.6837L129.139 30.4805L126.803 30.5957L125.966 30.5749L125.127 30.6453L124.908 30.5557L124.775 30.6053L124.767 30.9429L124.747 31.3941L124.775 34.6805L124.798 37.9653L124.598 39.7941L124.742 41.6005L128.035 41.7909L131.302 41.6421L132.089 41.7333L132.876 41.6005L133.244 41.7893L133.707 41.6101L134.587 41.9957L135.487 42.2965L135.769 43.2709L136.049 44.2453L135.769 45.2405L135.487 46.2341L134.587 46.5141L133.687 46.7957L132.073 46.6485L130.582 46.8693L130.116 46.6469L129.651 46.8645L128.823 46.9285L127.995 46.9333L127.27 46.9509L126.545 46.8405L125.718 46.7893L124.889 46.8933L121.732 46.9349L118.574 46.9061L115.767 46.8245L112.983 46.8533L112.147 46.5125L111.267 46.3765L111.225 46.2757L111.099 46.2501L110.887 45.2405L110.625 44.2453L110.887 43.2709L111.15 42.2965L112.068 41.9957L112.987 41.6965H116.025H119.062L119.206 41.4661L119.02 41.3541L118.951 41.0117L119.014 40.6677L118.916 37.8373L119.004 35.0069L119.172 32.3477L119.015 29.6885L118.961 25.7429L118.956 21.7957L119.073 18.1077L119.019 14.4181L119.038 14.2469L119.02 14.0757L119.121 11.1589L118.907 8.2421L118.98 7.7797L119.052 7.4501L116.025 7.3829H112.987L112.068 7.1029L111.15 6.8213L110.887 5.8277L110.625 4.8341L110.887 3.8581L111.15 2.8837L112.068 2.5829L112.987 2.2837L116.193 2.2261L119.447 2.2645L120.935 2.3237L122.422 2.2773L124.833 2.1781L127.244 2.2469L129.091 2.2293L130.937 2.1637L132.263 2.1749L133.505 2.2709L133.504 2.27065ZM124.692 25.3688L126.473 25.4117L128.299 25.2997L130.471 25.5381L132.711 25.4421L134.025 25.2885L135.334 25.2437L138.063 24.3365L140.615 23.0085L141.324 22.5525L141.751 21.8261L142.686 19.1973L143.327 16.4757L143.243 16.3909L143.26 16.3253L142.399 13.4661L141.372 10.6677L141.035 10.2149L140.583 9.8597L138.366 8.8549L136.171 7.8149L135.236 7.5509L134.252 7.4837L133.484 7.3989L132.71 7.5413L129.311 7.5029L125.811 7.3877L125.27 7.3317L124.71 7.4101L124.66 7.8469L124.743 8.2869L124.585 11.4053L124.846 14.5221L124.799 16.4661L124.833 18.4085L124.764 18.9509L124.727 19.4933L124.62 22.2501L124.787 25.0069L124.54 25.1717L124.692 25.3685L124.692 25.3688Z" fill="url(#paint2_linear_2239_11899)" style=""/>
<path fill-rule="evenodd" clip-rule="evenodd" d="M182.007 0.920516L184.467 1.33937L186.949 1.51217L187.378 1.72977L187.829 1.81457L188.325 2.09457L188.909 2.12337L189.709 2.60977L190.621 2.84657L191.437 3.45617L192.405 3.82897L194.351 5.55217L196.311 7.27217L197.568 9.68817L199.184 11.8546L199.331 11.9202L199.309 12.061L199.711 13.5346L200.474 14.8818L201.109 18.6738L201.754 22.461L201.755 23.3138L201.834 24.1666L201.311 27.133L201.293 30.1474L200.423 32.3858L199.975 34.7314L199.781 34.757L199.893 34.8978L199.607 35.6002L199.331 36.3266L196.831 39.4562L194.595 42.7842L193.363 43.477L192.363 44.4706L189.456 45.4626L186.679 46.7474L184.322 46.8418L182.002 47.3794L179.765 47.0306L177.53 46.8178L177.149 46.7618L176.759 46.7122L175.008 46.0066L173.219 45.3938L172.443 44.8562L171.615 44.4226L170.04 43.221L168.506 41.9682L168.24 41.5106L167.842 41.1826L166.531 39.4098L165.338 37.5538L165.021 36.9138L164.619 36.3154L164.199 35.445L163.943 34.5058L163.243 31.2146L162.403 27.9522L162.282 26.0546L162.227 24.1586L162.381 21.3522L162.599 18.5426L163.256 16.3922L163.778 14.2178L164.346 13.1906L164.68 12.0658L166.403 9.54097L168.035 6.95537L169.787 5.37937L171.637 3.92497L173.738 2.90417L175.855 1.91697L177.383 1.50897L178.933 1.21617L180.469 1.14577L182.007 0.920166L182.007 0.920516ZM182.007 6.66572L179.376 7.15857L176.747 7.67057L175.791 8.29937L174.807 8.82897L172.467 11.317L170.336 13.9954L170.216 14.3058L170.093 14.6226L169.951 14.7234L170.008 14.8946L169.309 17.1538L168.592 19.4066L168.317 21.5122L168.251 23.6338L168.33 23.8978L168.355 24.1618L168.127 24.2402L168.346 24.3154L168.159 25.4066L168.359 26.4834L168.464 27.117L168.511 27.7538L168.642 29.3538L169.119 30.8818L169.339 32.2226L169.991 33.4178L170.423 34.2658L170.776 35.1634L171.567 36.125L172.208 37.1922L173.493 38.333L174.736 39.5218L175.613 39.917L176.44 40.3522L178.704 41.0914L181.055 41.509L181.514 41.5842L181.994 41.6258L184.442 41.1778L186.874 40.6882L188.029 40.0834L189.151 39.4466L191.672 36.669L193.875 33.6162L193.999 33.5666L194.011 33.4354L194.325 32.6386L194.65 31.8498L195.251 29.6642L195.467 27.4066L195.861 25.8018L195.707 24.165L195.327 21.1554L195.08 18.133L194.467 16.5378L194.048 14.8706L193.751 14.1282L193.363 13.4306L191.706 11.3762L189.997 9.36497L189.711 8.93777L189.237 8.75057L186.811 7.92497L184.463 6.94257L183.256 6.64177L182.007 6.66577L182.007 6.66572Z" fill="url(#paint3_linear_2239_11899)" style=""/>
<path fill-rule="evenodd" clip-rule="evenodd" d="M2.06342 57.982L1.0224 59.0128L0 59.9728L1.0224 60.9328L2.0448 61.8928L2.0848 61.6272L2.0208 61.3936L1.9952 59.7024L2.064 57.9824L2.06342 57.982ZM1.98022 61.9164L3.3872 61.6192L4.744 61.4368L5.7472 60.9008L6.7456 60.3616L7.5808 59.6848L8.3776 58.96L8.7216 58.7136L8.9264 58.3216L10.8624 57.2448L12.776 56.1328L12.7328 55.6992L12.7232 55.2304L12.7488 53.7504L12.7744 52.3136L9.8848 53.4064L7.0704 54.6912L6.4912 55.2624L5.8784 55.8384L3.9584 56.9408L2.0448 58.0528V59.9728L1.9808 61.9168L1.98022 61.9164ZM12.7412 56.1388L13.1584 56.1408L13.5776 56.1264L15.1136 57.2176L16.608 58.352L19.4448 60.0544L22.288 61.7392L22.88 61.8704L23.4496 61.8736L23.5088 59.9728V58.0528L22.568 57.832L21.624 57.6048L20.6416 56.7264L19.6608 55.8512L19.0304 55.1472L18.3152 54.544L17.0256 53.6448L15.68 52.824L14.224 52.5952L12.8048 52.3168L12.776 54.2128L12.7408 56.1392L12.7412 56.1388ZM23.4926 61.8972L24.6304 61.7792L25.7184 61.5584L28.0544 59.9472L30.3728 58.304L31.0784 57.7104L31.6992 57.016L31.9936 56.816L32.2704 56.568L33.2528 56.32L34.2128 56.12L34.2416 54.2128V52.2928L31.1072 53.7936L27.9456 55.2352L27.6256 55.5072L27.3632 55.872L25.4224 56.9408L23.5088 58.0528V59.9728L23.4928 61.8976L23.4926 61.8972ZM34.2376 56.134L36.1552 57.2448L38.0688 58.3568L39.5392 59.5568L40.9552 60.8016L42.9408 61.4144L44.9728 61.8448L44.9568 61.3808L44.9728 60.856L45.016 60.2128L44.9056 59.5696V58.784L44.968 58.0576L43.0592 56.9408L41.1456 55.8288L39.3472 54.4304L37.5872 52.984L35.9056 52.6784L34.2592 52.312L34.2416 54.2128L34.2384 56.1344L34.2376 56.134ZM44.9298 61.9132L46.616 61.4976L48.2736 61.2032L49.6768 60.2016L51.072 59.1888L51.464 58.7632L51.84 58.3008L53.792 57.2448L55.7056 56.1328L55.7376 55.352L55.6448 54.5968L55.6432 53.4192L55.6816 52.3568L53.8304 52.7504L51.9632 53.2112L50.4 54.536L48.8128 55.848L46.8864 56.9408L44.9728 58.0528V59.9728L44.9296 61.9136L44.9298 61.9132ZM55.6763 56.1692L57.6192 57.2448L59.5328 58.3568L61.6752 59.8832L63.8016 61.4128L65.1152 61.6224L66.4288 61.8864L66.4368 59.9728V58.0528L64.5232 56.9408L62.6096 55.8288L61.28 54.6752L59.9712 53.4992L59.728 53.28L59.3872 53.2368L59.112 53.0432L58.8 52.96L57.2624 52.5776L55.7376 52.3344L55.7568 53.7312L55.7856 55.2112L55.6352 55.6432L55.6768 56.1696L55.6763 56.1692ZM66.3909 61.926L68.6544 61.1648L70.888 60.5296L72.1408 59.48L73.3312 58.344L74.2352 57.4752L75.1808 56.6432L76.2016 56.4752L77.1552 56.1184L77.1696 55.3936L77.1552 54.6544L77.1408 53.4624L77.1552 52.3344L75.1568 52.7632L73.1824 53.3552L71.6784 54.5344L70.2736 55.8416L68.3504 56.9408L66.4368 58.0528V59.9728L66.3904 61.9264L66.3909 61.926ZM77.1296 56.1484L78.1744 56.4128L79.2112 56.6368L80.0592 57.5536L81.0368 58.3088L82.8672 59.8976L84.832 61.312L86.3744 61.5488L87.8848 61.856L87.8592 60.9792L87.8752 60.0304L87.944 59.0592L87.8992 58.056L85.9872 56.9408L84.0736 55.8272L83.5936 55.4144L83.184 54.9568L80.1856 53.608L77.1728 52.3056L77.1696 54.2128L77.1296 56.1488V56.1484ZM87.9002 61.9004L90.0624 61.3088L92.1872 60.6128L92.7632 60.3104L93.2224 59.8336L93.9824 59.0656L94.7648 58.2976L96.72 57.2448L98.6336 56.1328V54.2128V52.2928L95.488 53.7712L92.3552 55.2704L92.024 55.512L91.7648 55.8624L91.1504 56.3504L90.6384 56.9424L89.2864 57.5376L87.9488 58.0832V59.5504L87.9728 61.0864L87.944 61.5072L87.9008 61.9008L87.9002 61.9004ZM98.6131 56.1452L100.547 57.2448L102.462 58.3568L103.104 58.9712L103.741 59.5584L106.539 60.7504L109.373 61.8464L109.357 61.1088L109.296 60.3184L109.438 59.992L109.331 59.6656L109.437 58.888L109.318 58.1008L107.453 56.9408L105.539 55.8288L103.73 54.312L101.808 52.9472L100.229 52.608L98.6528 52.3104L98.6336 54.2128L98.6128 56.1456L98.6131 56.1452ZM109.356 61.9468L112.819 60.1248L116.27 58.3568L118.184 57.2448L120.098 56.1328V54.2128V52.2928L118.877 52.488L117.666 52.712L116.765 53.0352L115.931 53.5056L114.83 54.336L113.798 55.2624L113.493 55.5376L113.202 55.8368L111.28 56.9408L109.366 58.0528L109.309 58.9888L109.429 59.8768L109.35 60.8784L109.357 61.9472L109.356 61.9468ZM120.098 56.1324L122.013 57.2448L123.926 58.3568L126.461 59.9568L128.944 61.6224L129.872 61.7824L130.813 61.8832L130.83 59.9728V58.0528L128.917 56.9408L127.003 55.8288L125.419 54.4864L123.814 53.1728L121.955 52.7456L120.141 52.3472L120.098 54.2128V56.1328L120.098 56.1324ZM130.837 61.9692L134.283 60.1248L137.734 58.3568L139.65 57.2448L141.563 56.1328V54.2128V52.2928L140.56 52.44L139.56 52.5568L138.442 53.0592L137.296 53.504L136.686 53.9984L136.04 54.4496L135.314 55.1024L134.68 55.8608L132.744 56.9408L130.83 58.0528L130.782 59.5696L130.837 61.048L130.795 61.456L130.837 61.9696V61.9692ZM141.51 56.1468L142.203 56.2544L142.858 56.3184L144.099 57.3712L145.408 58.336L146.958 59.624L148.493 60.9216L149.698 61.4L150.958 61.7344L151.622 61.8L152.272 61.8848L152.294 59.9728V58.0528L150.381 56.9408L148.467 55.8288L145.869 54.208L143.32 52.5152L142.454 52.3712L141.578 52.3008L141.563 54.2128L141.51 56.1472L141.51 56.1468ZM152.282 61.9068L155.152 60.8272L157.954 59.6224L158.555 58.9696L159.182 58.3328L161.114 57.2448L163.027 56.1328V54.2128V52.2928L161.373 52.6288L159.731 53.0048L159.155 53.2864L158.613 53.6288L157.33 54.6848L156.166 55.88L154.792 56.8432L153.522 57.952L152.882 57.9136L152.331 58.064L152.294 59.9728L152.282 61.9072L152.282 61.9068ZM163.014 56.1452L164.941 57.2448L166.854 58.3568L168.296 59.5904L169.726 60.8304L171.722 61.4432L173.762 61.8544L173.774 61.4064L173.733 60.9328L173.766 59.496L173.698 58.08L173.098 57.8864L172.411 57.84L171.149 56.8624L169.915 55.856L166.48 54.0608L163.027 52.2928L162.974 53.4672L163.07 54.5968L162.995 55.352L163.014 56.1456V56.1452ZM173.734 61.926L176.918 60.5136L180.014 59.0064L180.382 58.7296L180.619 58.3136L180.914 58.1408L181.075 57.8144L182.821 57.0416L184.424 56.0928L184.491 54.2128V52.2928L182.507 52.7152L180.571 53.3152L179.546 54.1456L178.464 54.9232L177.992 55.344L177.614 55.8624L176.09 56.8416L174.702 58.0176L174.221 58.0736L173.797 58.0608L173.76 59.9728L173.734 61.9264V61.926ZM184.432 56.1548L185.139 56.2096L185.795 56.3024L187.094 57.288L188.363 58.2944L190.715 59.968L193.09 61.608L194.142 61.832L195.171 61.8608L195.224 59.9728V58.0528L194.418 57.96L193.61 57.7808L192.514 56.7872L191.357 55.8848L188.544 54.1488L185.736 52.3984L185.122 52.288L184.536 52.3568L184.438 52.7952L184.565 53.2528L184.443 54.6736L184.432 56.1552V56.1548ZM195.218 61.8956L197.282 61.368L199.312 60.7488L199.893 60.4688L200.39 60.0464L201.299 59.2416L202.093 58.3056L204.042 57.2448L205.955 56.1328L205.95 55.28L205.915 54.424L205.901 53.336L205.96 52.3456L202.864 53.7056L199.758 55.0848L199.382 55.4336L199.086 55.8624L198.842 56.0624L198.632 56.2976L198.014 56.896L197.342 57.4336L196.28 57.7392L195.229 58.0544L195.224 59.9728L195.218 61.896V61.8956ZM205.88 56.1548L206.379 55.9984L206.771 55.896L207.4 55.0736L207.97 54.2208L206.978 53.2528L205.955 52.2928V54.2128L205.88 56.1552V56.1548Z" fill="url(#paint4_linear_2239_11899)" style=""/>
<defs>
<linearGradient id="paint0_linear_2239_11899" x1="24.9818" y1="2.12695" x2="24.9818" y2="46.9462" gradientUnits="userSpaceOnUse">
<stop stop-color="#2E2F38" style="stop-color:#2E2F38;stop-color:color(display-p3 0.1804 0.1843 0.2196);stop-opacity:1;"/>
<stop offset="1" stop-color="#494A54" style="stop-color:#494A54;stop-color:color(display-p3 0.2863 0.2902 0.3294);stop-opacity:1;"/>
</linearGradient>
<linearGradient id="paint1_linear_2239_11899" x1="77.0424" y1="2.14294" x2="77.0424" y2="46.9541" gradientUnits="userSpaceOnUse">
<stop stop-color="#2E2F38" style="stop-color:#2E2F38;stop-color:color(display-p3 0.1804 0.1843 0.2196);stop-opacity:1;"/>
<stop offset="1" stop-color="#494A54" style="stop-color:#494A54;stop-color:color(display-p3 0.2863 0.2902 0.3294);stop-opacity:1;"/>
</linearGradient>
<linearGradient id="paint2_linear_2239_11899" x1="130.003" y1="2.1637" x2="130.003" y2="46.9509" gradientUnits="userSpaceOnUse">
<stop stop-color="#2E2F38" style="stop-color:#2E2F38;stop-color:color(display-p3 0.1804 0.1843 0.2196);stop-opacity:1;"/>
<stop offset="1" stop-color="#6D6E78" style="stop-color:#6D6E78;stop-color:color(display-p3 0.4275 0.4314 0.4706);stop-opacity:1;"/>
</linearGradient>
<linearGradient id="paint3_linear_2239_11899" x1="182.031" y1="0.920166" x2="182.031" y2="47.3794" gradientUnits="userSpaceOnUse">
<stop stop-color="#2E2F38" style="stop-color:#2E2F38;stop-color:color(display-p3 0.1804 0.1843 0.2196);stop-opacity:1;"/>
<stop offset="1" stop-color="#494A54" style="stop-color:#494A54;stop-color:color(display-p3 0.2863 0.2902 0.3294);stop-opacity:1;"/>
</linearGradient>
<linearGradient id="paint4_linear_2239_11899" x1="0" y1="57.1288" x2="207.97" y2="57.1288" gradientUnits="userSpaceOnUse">
<stop stop-color="#DC6B6E" style="stop-color:#DC6B6E;stop-color:color(display-p3 0.8627 0.4196 0.4314);stop-opacity:1;"/>
<stop offset="1" stop-color="#AC5254" style="stop-color:#AC5254;stop-color:color(display-p3 0.6745 0.3216 0.3294);stop-opacity:1;"/>
</linearGradient>
</defs>
</svg>
