<svg width="300" height="208" viewBox="0 0 300 208" fill="none" xmlns="http://www.w3.org/2000/svg">
<rect width="300" height="208" fill="white" style="fill:white;fill-opacity:1;"/>
<rect x="92.5" y="40.5" width="115" height="31" rx="7.5" fill="white" style="fill:white;fill-opacity:1;"/>
<rect x="92.5" y="40.5" width="115" height="31" rx="7.5" stroke="#C9CAD6" style="stroke:#C9CAD6;stroke:color(display-p3 0.7882 0.7922 0.8392);stroke-opacity:1;"/>
<path d="M102 44.5H114C117.038 44.5 119.5 46.9624 119.5 50V62C119.5 65.0376 117.038 67.5 114 67.5H102C98.9624 67.5 96.5 65.0376 96.5 62V50C96.5 46.9624 98.9624 44.5 102 44.5Z" fill="#F2F3FA" style="fill:#F2F3FA;fill:color(display-p3 0.9490 0.9529 0.9804);fill-opacity:1;"/>
<path d="M102 44.5H114C117.038 44.5 119.5 46.9624 119.5 50V62C119.5 65.0376 117.038 67.5 114 67.5H102C98.9624 67.5 96.5 65.0376 96.5 62V50C96.5 46.9624 98.9624 44.5 102 44.5Z" stroke="#C9CAD6" style="stroke:#C9CAD6;stroke:color(display-p3 0.7882 0.7922 0.8392);stroke-opacity:1;"/>
<path d="M102.661 52.5273C102.567 52.1992 102.719 52 103.055 52H103.938C104.219 52 104.387 52.1289 104.454 52.4062L105.68 57.5586H105.747L107.102 52.4023C107.172 52.1289 107.344 52 107.622 52H108.375C108.653 52 108.825 52.1289 108.895 52.4023L110.247 57.5703H110.317L111.543 52.4062C111.61 52.1289 111.778 52 112.059 52H112.942C113.278 52 113.43 52.1992 113.336 52.5273L111.313 59.6055C111.239 59.8711 111.067 60 110.79 60H109.961C109.684 60 109.516 59.875 109.438 59.6055L108.028 54.7695H107.965L106.559 59.6055C106.481 59.875 106.313 60 106.036 60H105.208C104.93 60 104.758 59.8711 104.684 59.6055L102.661 52.5273Z" fill="#2E2F38" style="fill:#2E2F38;fill:color(display-p3 0.1804 0.1843 0.2196);fill-opacity:1;"/>
<path d="M130 44.5H142C145.038 44.5 147.5 46.9624 147.5 50V62C147.5 65.0376 145.038 67.5 142 67.5H130C126.962 67.5 124.5 65.0376 124.5 62V50C124.5 46.9624 126.962 44.5 130 44.5Z" fill="#F2F3FA" style="fill:#F2F3FA;fill:color(display-p3 0.9490 0.9529 0.9804);fill-opacity:1;"/>
<path d="M130 44.5H142C145.038 44.5 147.5 46.9624 147.5 50V62C147.5 65.0376 145.038 67.5 142 67.5H130C126.962 67.5 124.5 65.0376 124.5 62V50C124.5 46.9624 126.962 44.5 130 44.5Z" stroke="#C9CAD6" style="stroke:#C9CAD6;stroke:color(display-p3 0.7882 0.7922 0.8392);stroke-opacity:1;"/>
<path d="M132.714 60C132.37 60 132.218 59.7891 132.331 59.4648L134.776 52.3789C134.866 52.1172 135.038 52 135.312 52H136.687C136.96 52 137.132 52.1172 137.222 52.3789L139.663 59.4648C139.776 59.793 139.624 60 139.28 60H138.44C138.167 60 137.995 59.875 137.909 59.6133L137.44 58.1758H134.554L134.085 59.6133C133.999 59.875 133.827 60 133.554 60H132.714ZM134.983 56.8555H137.015L136.03 53.8281H135.968L134.983 56.8555Z" fill="#2E2F38" style="fill:#2E2F38;fill:color(display-p3 0.1804 0.1843 0.2196);fill-opacity:1;"/>
<path d="M158 44.5H170C173.038 44.5 175.5 46.9624 175.5 50V62C175.5 65.0376 173.038 67.5 170 67.5H158C154.962 67.5 152.5 65.0376 152.5 62V50C152.5 46.9624 154.962 44.5 158 44.5Z" fill="#F2F3FA" style="fill:#F2F3FA;fill:color(display-p3 0.9490 0.9529 0.9804);fill-opacity:1;"/>
<path d="M158 44.5H170C173.038 44.5 175.5 46.9624 175.5 50V62C175.5 65.0376 173.038 67.5 170 67.5H158C154.962 67.5 152.5 65.0376 152.5 62V50C152.5 46.9624 154.962 44.5 158 44.5Z" stroke="#C9CAD6" style="stroke:#C9CAD6;stroke:color(display-p3 0.7882 0.7922 0.8392);stroke-opacity:1;"/>
<path d="M161.086 52.4687C161.086 52.1641 161.25 52 161.555 52H164.242C166.059 52 167.109 53.0234 167.109 54.6133C167.109 55.707 166.605 56.5 165.695 56.8906L167.09 59.4414C167.266 59.7656 167.125 60 166.758 60H165.906C165.648 60 165.469 59.8984 165.348 59.668L164.012 57.1641H162.777V59.5312C162.777 59.8359 162.613 60 162.309 60H161.555C161.25 60 161.086 59.8359 161.086 59.5312V52.4687ZM162.777 55.8047H163.926C164.895 55.8047 165.367 55.4062 165.367 54.6133C165.367 53.8164 164.895 53.3828 163.918 53.3828H162.777V55.8047Z" fill="#2E2F38" style="fill:#2E2F38;fill:color(display-p3 0.1804 0.1843 0.2196);fill-opacity:1;"/>
<path d="M186 44.5H198C201.038 44.5 203.5 46.9624 203.5 50V62C203.5 65.0376 201.038 67.5 198 67.5H186C182.962 67.5 180.5 65.0376 180.5 62V50C180.5 46.9624 182.962 44.5 186 44.5Z" fill="#F2F3FA" style="fill:#F2F3FA;fill:color(display-p3 0.9490 0.9529 0.9804);fill-opacity:1;"/>
<path d="M186 44.5H198C201.038 44.5 203.5 46.9624 203.5 50V62C203.5 65.0376 201.038 67.5 198 67.5H186C182.962 67.5 180.5 65.0376 180.5 62V50C180.5 46.9624 182.962 44.5 186 44.5Z" stroke="#C9CAD6" style="stroke:#C9CAD6;stroke:color(display-p3 0.7882 0.7922 0.8392);stroke-opacity:1;"/>
<path d="M189.354 52C189.62 52 189.795 52.1172 189.897 52.3633L191.952 57.375H192.045L194.1 52.3633C194.202 52.1172 194.377 52 194.643 52H195.866C196.17 52 196.334 52.1641 196.334 52.4687V59.5312C196.334 59.8359 196.17 60 195.866 60H195.163C194.858 60 194.694 59.8359 194.694 59.5312V54.793H194.627L192.706 59.5937C192.604 59.8437 192.432 59.9609 192.163 59.9609H191.834C191.565 59.9609 191.393 59.8437 191.295 59.5937L189.37 54.7734H189.303V59.5312C189.303 59.8359 189.139 60 188.834 60H188.131C187.827 60 187.663 59.8359 187.663 59.5312V52.4687C187.663 52.1641 187.827 52 188.131 52H189.354Z" fill="#2E2F38" style="fill:#2E2F38;fill:color(display-p3 0.1804 0.1843 0.2196);fill-opacity:1;"/>
<path d="M152.413 79.8242C152.627 79.6094 152.862 79.6055 153.077 79.8203L153.327 80.0664C153.542 80.2812 153.542 80.5156 153.327 80.7305L150.334 83.7148C150.12 83.9297 149.885 83.9297 149.67 83.7148L146.686 80.7305C146.471 80.5156 146.467 80.2852 146.682 80.0664L146.92 79.8242C147.135 79.6055 147.37 79.6094 147.584 79.8242L149.342 81.582V76.4687C149.342 76.1641 149.506 76 149.811 76H150.194C150.499 76 150.663 76.1641 150.663 76.4687V81.582L152.413 79.8242Z" fill="#2E2F38" style="fill:#2E2F38;fill:color(display-p3 0.1804 0.1843 0.2196);fill-opacity:1;"/>
<rect x="75.5" y="88.5" width="149" height="31" rx="7.5" fill="white" style="fill:white;fill-opacity:1;"/>
<rect x="75.5" y="88.5" width="149" height="31" rx="7.5" stroke="#C9CAD6" style="stroke:#C9CAD6;stroke:color(display-p3 0.7882 0.7922 0.8392);stroke-opacity:1;"/>
<path d="M147.592 128.176C147.377 128.391 147.143 128.395 146.928 128.18L146.678 127.934C146.463 127.719 146.463 127.484 146.678 127.27L149.67 124.285C149.885 124.07 150.12 124.07 150.334 124.285L153.319 127.27C153.534 127.484 153.538 127.715 153.323 127.934L153.084 128.176C152.87 128.395 152.639 128.395 152.42 128.176L150.663 126.418V131.531C150.663 131.836 150.499 132 150.194 132H149.811C149.506 132 149.342 131.836 149.342 131.531V126.418L147.592 128.176Z" fill="#2E2F38" style="fill:#2E2F38;fill:color(display-p3 0.1804 0.1843 0.2196);fill-opacity:1;"/>
<rect x="92.5" y="136.5" width="115" height="31" rx="7.5" fill="white" style="fill:white;fill-opacity:1;"/>
<rect x="92.5" y="136.5" width="115" height="31" rx="7.5" stroke="#C9CAD6" style="stroke:#C9CAD6;stroke:color(display-p3 0.7882 0.7922 0.8392);stroke-opacity:1;"/>
<path d="M102 140.5H114C117.038 140.5 119.5 142.962 119.5 146V158C119.5 161.038 117.038 163.5 114 163.5H102C98.9624 163.5 96.5 161.038 96.5 158V146C96.5 142.962 98.9624 140.5 102 140.5Z" fill="#F2F3FA" style="fill:#F2F3FA;fill:color(display-p3 0.9490 0.9529 0.9804);fill-opacity:1;"/>
<path d="M102 140.5H114C117.038 140.5 119.5 142.962 119.5 146V158C119.5 161.038 117.038 163.5 114 163.5H102C98.9624 163.5 96.5 161.038 96.5 158V146C96.5 142.962 98.9624 140.5 102 140.5Z" stroke="#C9CAD6" style="stroke:#C9CAD6;stroke:color(display-p3 0.7882 0.7922 0.8392);stroke-opacity:1;"/>
<path d="M110.325 150.801C110.048 150.801 109.903 150.664 109.802 150.398C109.552 149.762 108.958 149.387 108.185 149.387C106.946 149.387 106.134 150.336 106.134 152C106.134 153.711 106.958 154.613 108.173 154.613C108.927 154.613 109.521 154.27 109.786 153.66C109.899 153.398 110.04 153.266 110.317 153.266L111.095 153.27C111.423 153.273 111.603 153.469 111.513 153.781C111.134 155.047 109.958 156.109 108.146 156.109C106.005 156.109 104.419 154.609 104.419 152C104.419 149.383 106.032 147.891 108.146 147.891C109.817 147.891 111.122 148.758 111.521 150.289C111.606 150.609 111.423 150.801 111.099 150.801H110.325Z" fill="#2E2F38" style="fill:#2E2F38;fill:color(display-p3 0.1804 0.1843 0.2196);fill-opacity:1;"/>
<path d="M130 140.5H142C145.038 140.5 147.5 142.962 147.5 146V158C147.5 161.038 145.038 163.5 142 163.5H130C126.962 163.5 124.5 161.038 124.5 158V146C124.5 142.962 126.962 140.5 130 140.5Z" fill="#F2F3FA" style="fill:#F2F3FA;fill:color(display-p3 0.9490 0.9529 0.9804);fill-opacity:1;"/>
<path d="M130 140.5H142C145.038 140.5 147.5 142.962 147.5 146V158C147.5 161.038 145.038 163.5 142 163.5H130C126.962 163.5 124.5 161.038 124.5 158V146C124.5 142.962 126.962 140.5 130 140.5Z" stroke="#C9CAD6" style="stroke:#C9CAD6;stroke:color(display-p3 0.7882 0.7922 0.8392);stroke-opacity:1;"/>
<path d="M139.745 152C139.745 154.617 138.12 156.109 135.999 156.109C133.866 156.109 132.252 154.605 132.252 152C132.252 149.383 133.866 147.891 135.999 147.891C138.12 147.891 139.745 149.383 139.745 152ZM133.967 152C133.967 153.695 134.768 154.613 135.999 154.613C137.225 154.613 138.03 153.695 138.03 152C138.03 150.305 137.225 149.387 135.999 149.387C134.768 149.387 133.967 150.305 133.967 152Z" fill="#2E2F38" style="fill:#2E2F38;fill:color(display-p3 0.1804 0.1843 0.2196);fill-opacity:1;"/>
<path d="M158 140.5H170C173.038 140.5 175.5 142.962 175.5 146V158C175.5 161.038 173.038 163.5 170 163.5H158C154.962 163.5 152.5 161.038 152.5 158V146C152.5 142.962 154.962 140.5 158 140.5Z" fill="#F2F3FA" style="fill:#F2F3FA;fill:color(display-p3 0.9490 0.9529 0.9804);fill-opacity:1;"/>
<path d="M158 140.5H170C173.038 140.5 175.5 142.962 175.5 146V158C175.5 161.038 173.038 163.5 170 163.5H158C154.962 163.5 152.5 161.038 152.5 158V146C152.5 142.962 154.962 140.5 158 140.5Z" stroke="#C9CAD6" style="stroke:#C9CAD6;stroke:color(display-p3 0.7882 0.7922 0.8392);stroke-opacity:1;"/>
<path d="M161.575 148.469C161.575 148.164 161.739 148 162.043 148H162.797C163.102 148 163.266 148.164 163.266 148.469V154.605H166.227C166.532 154.605 166.696 154.77 166.696 155.074V155.531C166.696 155.836 166.532 156 166.227 156H162.043C161.739 156 161.575 155.836 161.575 155.531V148.469Z" fill="#2E2F38" style="fill:#2E2F38;fill:color(display-p3 0.1804 0.1843 0.2196);fill-opacity:1;"/>
<path d="M186 140.5H198C201.038 140.5 203.5 142.962 203.5 146V158C203.5 161.038 201.038 163.5 198 163.5H186C182.962 163.5 180.5 161.038 180.5 158V146C180.5 142.962 182.962 140.5 186 140.5Z" fill="#F2F3FA" style="fill:#F2F3FA;fill:color(display-p3 0.9490 0.9529 0.9804);fill-opacity:1;"/>
<path d="M186 140.5H198C201.038 140.5 203.5 142.962 203.5 146V158C203.5 161.038 201.038 163.5 198 163.5H186C182.962 163.5 180.5 161.038 180.5 158V146C180.5 142.962 182.962 140.5 186 140.5Z" stroke="#C9CAD6" style="stroke:#C9CAD6;stroke:color(display-p3 0.7882 0.7922 0.8392);stroke-opacity:1;"/>
<path d="M189.163 156C188.858 156 188.694 155.836 188.694 155.531V148.469C188.694 148.164 188.858 148 189.163 148H191.553C193.967 148 195.444 149.5 195.444 151.992C195.444 154.492 193.967 156 191.53 156H189.163ZM190.385 154.551H191.459C192.963 154.551 193.756 153.777 193.756 151.992C193.756 150.215 192.963 149.449 191.463 149.449H190.385V154.551Z" fill="#2E2F38" style="fill:#2E2F38;fill:color(display-p3 0.1804 0.1843 0.2196);fill-opacity:1;"/>
</svg>
