<svg width="300" height="208" viewBox="0 0 300 208" fill="none" xmlns="http://www.w3.org/2000/svg">
<rect width="300" height="208" fill="white" style="fill:white;fill-opacity:1;"/>
<rect x="98.5" y="24.5" width="47" height="47" rx="11.5" fill="white" style="fill:white;fill-opacity:1;"/>
<rect x="98.5" y="24.5" width="47" height="47" rx="11.5" stroke="#C9CAD6" style="stroke:#C9CAD6;stroke:color(display-p3 0.7882 0.7922 0.8392);stroke-opacity:1;"/>
<path d="M116.655 40.9375C116.655 40.3281 116.983 40 117.593 40H126.499C127.108 40 127.437 40.3281 127.437 40.9375V41.8516C127.437 42.4609 127.108 42.7891 126.499 42.7891H120.038V46.6016H125.944C126.554 46.6016 126.882 46.9297 126.882 47.5391V48.4531C126.882 49.0625 126.554 49.3906 125.944 49.3906H120.038V53.2109H126.53C127.14 53.2109 127.468 53.5391 127.468 54.1484V55.0625C127.468 55.6719 127.14 56 126.53 56H117.593C116.983 56 116.655 55.6719 116.655 55.0625V40.9375Z" fill="#2E2F38" style="fill:#2E2F38;fill:color(display-p3 0.1804 0.1843 0.2196);fill-opacity:1;"/>
<rect x="154.5" y="24.5" width="47" height="47" rx="11.5" fill="white" style="fill:white;fill-opacity:1;"/>
<rect x="154.5" y="24.5" width="47" height="47" rx="11.5" stroke="#C9CAD6" style="stroke:#C9CAD6;stroke:color(display-p3 0.7882 0.7922 0.8392);stroke-opacity:1;"/>
<path d="M179.69 55.0625C179.69 55.6719 179.362 56 178.753 56H177.245C176.636 56 176.308 55.6719 176.308 55.0625V40.9375C176.308 40.3281 176.636 40 177.245 40H178.753C179.362 40 179.69 40.3281 179.69 40.9375V55.0625Z" fill="#2E2F38" style="fill:#2E2F38;fill:color(display-p3 0.1804 0.1843 0.2196);fill-opacity:1;"/>
<rect x="70.5" y="80.5" width="47" height="47" rx="11.5" fill="white" style="fill:white;fill-opacity:1;"/>
<rect x="70.5" y="80.5" width="47" height="47" rx="11.5" stroke="#C9CAD6" style="stroke:#C9CAD6;stroke:color(display-p3 0.7882 0.7922 0.8392);stroke-opacity:1;"/>
<path d="M87.4336 96.9375C87.4336 96.3281 87.7617 96 88.3711 96H99.6367C100.246 96 100.574 96.3281 100.574 96.9375V97.8516C100.574 98.4609 100.246 98.7891 99.6367 98.7891H95.6758V111.062C95.6758 111.672 95.3477 112 94.7383 112H93.2695C92.6602 112 92.332 111.672 92.332 111.062V98.7891H88.3711C87.7617 98.7891 87.4336 98.4609 87.4336 97.8516V96.9375Z" fill="#2E2F38" style="fill:#2E2F38;fill:color(display-p3 0.1804 0.1843 0.2196);fill-opacity:1;"/>
<rect x="126.5" y="80.5" width="47" height="47" rx="11.5" fill="#F9F2E7" style="fill:#F9F2E7;fill:color(display-p3 0.9765 0.9490 0.9059);fill-opacity:1;"/>
<rect x="126.5" y="80.5" width="47" height="47" rx="11.5" stroke="#DDA846" style="stroke:#DDA846;stroke:color(display-p3 0.8667 0.6588 0.2745);stroke-opacity:1;"/>
<path d="M149.92 108.156H150.068L153.693 96.7734C153.857 96.25 154.209 96 154.756 96H156.561C157.248 96 157.553 96.4141 157.326 97.0703L152.443 111.242C152.264 111.766 151.92 112 151.373 112H148.623C148.076 112 147.732 111.766 147.553 111.242L142.662 97.0703C142.436 96.4141 142.74 96 143.428 96H145.24C145.787 96 146.139 96.25 146.303 96.7734L149.92 108.156Z" fill="#2E2F38" style="fill:#2E2F38;fill:color(display-p3 0.1804 0.1843 0.2196);fill-opacity:1;"/>
<rect x="182.5" y="80.5" width="47" height="47" rx="11.5" fill="white" style="fill:white;fill-opacity:1;"/>
<rect x="182.5" y="80.5" width="47" height="47" rx="11.5" stroke="#C9CAD6" style="stroke:#C9CAD6;stroke:color(display-p3 0.7882 0.7922 0.8392);stroke-opacity:1;"/>
<path d="M201.149 96.9375C201.149 96.3281 201.478 96 202.087 96H203.595C204.204 96 204.532 96.3281 204.532 96.9375V109.211H210.454C211.063 109.211 211.392 109.539 211.392 110.148V111.062C211.392 111.672 211.063 112 210.454 112H202.087C201.478 112 201.149 111.672 201.149 111.062V96.9375Z" fill="#2E2F38" style="fill:#2E2F38;fill:color(display-p3 0.1804 0.1843 0.2196);fill-opacity:1;"/>
<rect x="98.5" y="136.5" width="47" height="47" rx="11.5" fill="white" style="fill:white;fill-opacity:1;"/>
<rect x="98.5" y="136.5" width="47" height="47" rx="11.5" stroke="#C9CAD6" style="stroke:#C9CAD6;stroke:color(display-p3 0.7882 0.7922 0.8392);stroke-opacity:1;"/>
<path d="M126.65 157.602C126.096 157.602 125.807 157.328 125.604 156.797C125.104 155.523 123.916 154.773 122.369 154.773C119.893 154.773 118.268 156.672 118.268 160C118.268 163.422 119.916 165.227 122.346 165.227C123.854 165.227 125.041 164.539 125.572 163.32C125.799 162.797 126.08 162.531 126.635 162.531L128.189 162.539C128.846 162.547 129.205 162.937 129.025 163.562C128.268 166.094 125.916 168.219 122.291 168.219C118.01 168.219 114.838 165.219 114.838 160C114.838 154.766 118.064 151.781 122.291 151.781C125.635 151.781 128.244 153.516 129.041 156.578C129.213 157.219 128.846 157.602 128.197 157.602H126.65Z" fill="#2E2F38" style="fill:#2E2F38;fill:color(display-p3 0.1804 0.1843 0.2196);fill-opacity:1;"/>
<rect x="154.5" y="136.5" width="47" height="47" rx="11.5" fill="white" style="fill:white;fill-opacity:1;"/>
<rect x="154.5" y="136.5" width="47" height="47" rx="11.5" stroke="#C9CAD6" style="stroke:#C9CAD6;stroke:color(display-p3 0.7882 0.7922 0.8392);stroke-opacity:1;"/>
<path d="M171.428 168C170.74 168 170.436 167.578 170.662 166.93L175.553 152.758C175.732 152.234 176.076 152 176.623 152H179.373C179.92 152 180.264 152.234 180.443 152.758L185.326 166.93C185.553 167.586 185.248 168 184.561 168H182.881C182.334 168 181.99 167.75 181.818 167.227L180.881 164.352H175.107L174.17 167.227C173.998 167.75 173.654 168 173.107 168H171.428ZM175.967 161.711H180.029L178.061 155.656H177.936L175.967 161.711Z" fill="#2E2F38" style="fill:#2E2F38;fill:color(display-p3 0.1804 0.1843 0.2196);fill-opacity:1;"/>
</svg>
