<svg width="300" height="208" viewBox="0 0 300 208" fill="none" xmlns="http://www.w3.org/2000/svg">
<rect width="300" height="208" fill="white" style="fill:white;fill-opacity:1;"/>
<g opacity="0.3">
<rect x="79" y="33" width="142" height="142" rx="6" fill="#C9CAD6" style="fill:#C9CAD6;fill:color(display-p3 0.7882 0.7922 0.8392);fill-opacity:1;"/>
<rect x="83" y="37" width="32" height="32" rx="4" fill="#FAFBFE" style="fill:#FAFBFE;fill:color(display-p3 0.9804 0.9843 0.9961);fill-opacity:1;"/>
<path d="M100.229 58.3182C100.229 58.7614 99.9908 59 99.5476 59H98.451C98.0078 59 97.7692 58.7614 97.7692 58.3182V48.0455C97.7692 47.6023 98.0078 47.3636 98.451 47.3636H99.5476C99.9908 47.3636 100.229 47.6023 100.229 48.0455V58.3182Z" fill="#2E2F38" style="fill:#2E2F38;fill:color(display-p3 0.1804 0.1843 0.2196);fill-opacity:1;"/>
<rect x="117" y="37" width="32" height="32" rx="4" fill="#FAFBFE" style="fill:#FAFBFE;fill:color(display-p3 0.9804 0.9843 0.9961);fill-opacity:1;"/>
<path d="M135.858 47.3636C136.301 47.3636 136.54 47.6023 136.54 48.0455V55.4773C136.534 57.733 134.926 59.1591 132.568 59.1591C130.688 59.1591 129.165 58.2784 128.864 56.4375C128.79 55.983 129.068 55.7273 129.523 55.7273H130.636C131.051 55.7273 131.222 55.9432 131.369 56.3409C131.574 56.8864 132.045 57.1875 132.693 57.1875C133.602 57.1875 134.102 56.5966 134.108 55.4773V48.0455C134.108 47.6023 134.347 47.3636 134.79 47.3636H135.858Z" fill="#2E2F38" style="fill:#2E2F38;fill:color(display-p3 0.1804 0.1843 0.2196);fill-opacity:1;"/>
<rect x="151" y="37" width="32" height="32" rx="4" fill="#FAFBFE" style="fill:#FAFBFE;fill:color(display-p3 0.9804 0.9843 0.9961);fill-opacity:1;"/>
<path d="M166.942 56.2045H167.05L169.686 47.9261C169.805 47.5455 170.061 47.3636 170.459 47.3636H171.771C172.271 47.3636 172.493 47.6648 172.328 48.142L168.777 58.4489C168.646 58.8295 168.396 59 167.999 59H165.999C165.601 59 165.351 58.8295 165.22 58.4489L161.663 48.142C161.499 47.6648 161.72 47.3636 162.22 47.3636H163.538C163.936 47.3636 164.192 47.5455 164.311 47.9261L166.942 56.2045Z" fill="#2E2F38" style="fill:#2E2F38;fill:color(display-p3 0.1804 0.1843 0.2196);fill-opacity:1;"/>
<rect x="185" y="37" width="32" height="32" rx="4" fill="#FAFBFE" style="fill:#FAFBFE;fill:color(display-p3 0.9804 0.9843 0.9961);fill-opacity:1;"/>
<path d="M196.224 48.0455C196.224 47.6023 196.463 47.3636 196.906 47.3636H205.099C205.543 47.3636 205.781 47.6023 205.781 48.0455V48.7102C205.781 49.1534 205.543 49.392 205.099 49.392H202.219V58.3182C202.219 58.7614 201.98 59 201.537 59H200.469C200.026 59 199.787 58.7614 199.787 58.3182V49.392H196.906C196.463 49.392 196.224 49.1534 196.224 48.7102V48.0455Z" fill="#2E2F38" style="fill:#2E2F38;fill:color(display-p3 0.1804 0.1843 0.2196);fill-opacity:1;"/>
<rect x="83" y="71" width="32" height="32" rx="4" fill="#FAFBFE" style="fill:#FAFBFE;fill:color(display-p3 0.9804 0.9843 0.9961);fill-opacity:1;"/>
<path d="M100.229 92.3182C100.229 92.7614 99.9908 93 99.5476 93H98.451C98.0078 93 97.7692 92.7614 97.7692 92.3182V82.0455C97.7692 81.6023 98.0078 81.3636 98.451 81.3636H99.5476C99.9908 81.3636 100.229 81.6023 100.229 82.0455V92.3182Z" fill="#2E2F38" style="fill:#2E2F38;fill:color(display-p3 0.1804 0.1843 0.2196);fill-opacity:1;"/>
<rect x="117" y="71" width="32" height="32" rx="4" fill="#FAFBFE" style="fill:#FAFBFE;fill:color(display-p3 0.9804 0.9843 0.9961);fill-opacity:1;"/>
<path d="M129.151 81.3636C129.538 81.3636 129.793 81.5341 129.941 81.892L132.93 89.1818H133.066L136.055 81.892C136.202 81.5341 136.458 81.3636 136.844 81.3636H138.623C139.066 81.3636 139.305 81.6023 139.305 82.0455V92.3182C139.305 92.7614 139.066 93 138.623 93H137.6C137.157 93 136.918 92.7614 136.918 92.3182V85.4261H136.822L134.026 92.4091C133.879 92.7727 133.629 92.9432 133.237 92.9432H132.759C132.367 92.9432 132.117 92.7727 131.975 92.4091L129.174 85.3977H129.077V92.3182C129.077 92.7614 128.839 93 128.396 93H127.373C126.93 93 126.691 92.7614 126.691 92.3182V82.0455C126.691 81.6023 126.93 81.3636 127.373 81.3636H129.151Z" fill="#2E2F38" style="fill:#2E2F38;fill:color(display-p3 0.1804 0.1843 0.2196);fill-opacity:1;"/>
<rect x="151" y="71" width="32" height="32" rx="4" fill="#FAFBFE" style="fill:#FAFBFE;fill:color(display-p3 0.9804 0.9843 0.9961);fill-opacity:1;"/>
<path d="M163.113 82.0455C163.113 81.6023 163.352 81.3636 163.795 81.3636H170.272C170.715 81.3636 170.954 81.6023 170.954 82.0455V82.7102C170.954 83.1534 170.715 83.392 170.272 83.392H165.573V86.1648H169.869C170.312 86.1648 170.55 86.4034 170.55 86.8466V87.5114C170.55 87.9545 170.312 88.1932 169.869 88.1932H165.573V90.9716H170.295C170.738 90.9716 170.977 91.2102 170.977 91.6534V92.3182C170.977 92.7614 170.738 93 170.295 93H163.795C163.352 93 163.113 92.7614 163.113 92.3182V82.0455Z" fill="#2E2F38" style="fill:#2E2F38;fill:color(display-p3 0.1804 0.1843 0.2196);fill-opacity:1;"/>
<rect x="185" y="71" width="32" height="32" rx="4" fill="#FAFBFE" style="fill:#FAFBFE;fill:color(display-p3 0.9804 0.9843 0.9961);fill-opacity:1;"/>
<path d="M202.229 92.3182C202.229 92.7614 201.991 93 201.548 93H200.451C200.008 93 199.769 92.7614 199.769 92.3182V82.0455C199.769 81.6023 200.008 81.3636 200.451 81.3636H201.548C201.991 81.3636 202.229 81.6023 202.229 82.0455V92.3182Z" fill="#2E2F38" style="fill:#2E2F38;fill:color(display-p3 0.1804 0.1843 0.2196);fill-opacity:1;"/>
<rect x="83" y="105" width="32" height="32" rx="4" fill="#FAFBFE" style="fill:#FAFBFE;fill:color(display-p3 0.9804 0.9843 0.9961);fill-opacity:1;"/>
<path d="M103.862 126.318C103.862 126.761 103.623 127 103.18 127H102.259C101.896 127 101.646 126.875 101.435 126.568L96.674 119.676H96.5888V126.318C96.5888 126.761 96.3501 127 95.907 127H94.8104C94.3672 127 94.1286 126.761 94.1286 126.318V116.045C94.1286 115.602 94.3672 115.364 94.8104 115.364H95.7592C96.1229 115.364 96.3786 115.494 96.5831 115.795L101.31 122.682H101.413V116.045C101.413 115.602 101.651 115.364 102.094 115.364H103.18C103.623 115.364 103.862 115.602 103.862 116.045V126.318Z" fill="#2E2F38" style="fill:#2E2F38;fill:color(display-p3 0.1804 0.1843 0.2196);fill-opacity:1;"/>
<rect x="117" y="105" width="32" height="32" rx="4" fill="#FAFBFE" style="fill:#FAFBFE;fill:color(display-p3 0.9804 0.9843 0.9961);fill-opacity:1;"/>
<path d="M128.761 116.045C128.761 115.602 129 115.364 129.443 115.364H133.352C135.994 115.364 137.523 116.852 137.523 119.165C137.523 120.756 136.79 121.909 135.466 122.477L137.494 126.188C137.75 126.659 137.545 127 137.011 127H135.773C135.398 127 135.136 126.852 134.96 126.517L133.017 122.875H131.222V126.318C131.222 126.761 130.983 127 130.54 127H129.443C129 127 128.761 126.761 128.761 126.318V116.045ZM131.222 120.898H132.892C134.301 120.898 134.989 120.318 134.989 119.165C134.989 118.006 134.301 117.375 132.881 117.375H131.222V120.898Z" fill="#2E2F38" style="fill:#2E2F38;fill:color(display-p3 0.1804 0.1843 0.2196);fill-opacity:1;"/>
<rect x="151" y="105" width="32" height="32" rx="4" fill="#FAFBFE" style="fill:#FAFBFE;fill:color(display-p3 0.9804 0.9843 0.9961);fill-opacity:1;"/>
<path d="M162.22 127C161.72 127 161.499 126.693 161.663 126.222L165.22 115.915C165.351 115.534 165.601 115.364 165.999 115.364H167.999C168.396 115.364 168.646 115.534 168.777 115.915L172.328 126.222C172.493 126.699 172.271 127 171.771 127H170.55C170.152 127 169.902 126.818 169.777 126.438L169.095 124.347H164.896L164.214 126.438C164.089 126.818 163.839 127 163.442 127H162.22ZM165.521 122.426H168.476L167.044 118.023H166.953L165.521 122.426Z" fill="#2E2F38" style="fill:#2E2F38;fill:color(display-p3 0.1804 0.1843 0.2196);fill-opacity:1;"/>
<rect x="185" y="105" width="32" height="32" rx="4" fill="#FAFBFE" style="fill:#FAFBFE;fill:color(display-p3 0.9804 0.9843 0.9961);fill-opacity:1;"/>
<path d="M197.113 116.045C197.113 115.602 197.352 115.364 197.795 115.364H204.272C204.715 115.364 204.954 115.602 204.954 116.045V116.71C204.954 117.153 204.715 117.392 204.272 117.392H199.573V120.165H203.869C204.312 120.165 204.55 120.403 204.55 120.847V121.511C204.55 121.955 204.312 122.193 203.869 122.193H199.573V124.972H204.295C204.738 124.972 204.977 125.21 204.977 125.653V126.318C204.977 126.761 204.738 127 204.295 127H197.795C197.352 127 197.113 126.761 197.113 126.318V116.045Z" fill="#2E2F38" style="fill:#2E2F38;fill:color(display-p3 0.1804 0.1843 0.2196);fill-opacity:1;"/>
<rect x="83" y="139" width="32" height="32" rx="4" fill="#FAFBFE" style="fill:#FAFBFE;fill:color(display-p3 0.9804 0.9843 0.9961);fill-opacity:1;"/>
<path d="M95.1129 150.045C95.1129 149.602 95.3516 149.364 95.7947 149.364H102.272C102.715 149.364 102.954 149.602 102.954 150.045V150.71C102.954 151.153 102.715 151.392 102.272 151.392H97.5732V154.165H101.869C102.312 154.165 102.55 154.403 102.55 154.847V155.511C102.55 155.955 102.312 156.193 101.869 156.193H97.5732V158.972H102.295C102.738 158.972 102.977 159.21 102.977 159.653V160.318C102.977 160.761 102.738 161 102.295 161H95.7947C95.3516 161 95.1129 160.761 95.1129 160.318V150.045Z" fill="#2E2F38" style="fill:#2E2F38;fill:color(display-p3 0.1804 0.1843 0.2196);fill-opacity:1;"/>
<rect x="117" y="139" width="32" height="32" rx="4" fill="#FAFBFE" style="fill:#FAFBFE;fill:color(display-p3 0.9804 0.9843 0.9961);fill-opacity:1;"/>
<path d="M128.55 160.006C128.55 159.67 128.63 159.432 128.823 159.159L134.357 151.392H129.221C128.778 151.392 128.539 151.153 128.539 150.71V150.045C128.539 149.602 128.778 149.364 129.221 149.364H136.766C137.21 149.364 137.448 149.602 137.448 150.045V150.358C137.448 150.693 137.369 150.932 137.175 151.205L131.636 158.972H136.778C137.221 158.972 137.46 159.21 137.46 159.653V160.318C137.46 160.761 137.221 161 136.778 161H129.232C128.789 161 128.55 160.761 128.55 160.318V160.006Z" fill="#2E2F38" style="fill:#2E2F38;fill:color(display-p3 0.1804 0.1843 0.2196);fill-opacity:1;"/>
<rect x="151" y="139" width="32" height="32" rx="4" fill="#FAFBFE" style="fill:#FAFBFE;fill:color(display-p3 0.9804 0.9843 0.9961);fill-opacity:1;"/>
<path d="M162.873 161C162.43 161 162.191 160.761 162.191 160.318V150.045C162.191 149.602 162.43 149.364 162.873 149.364H166.35C169.862 149.364 172.009 151.545 172.009 155.17C172.009 158.807 169.862 161 166.316 161H162.873ZM164.651 158.892H166.214C168.401 158.892 169.555 157.767 169.555 155.17C169.555 152.585 168.401 151.472 166.219 151.472H164.651V158.892Z" fill="#2E2F38" style="fill:#2E2F38;fill:color(display-p3 0.1804 0.1843 0.2196);fill-opacity:1;"/>
<rect x="185" y="139" width="32" height="32" rx="4" fill="#FAFBFE" style="fill:#FAFBFE;fill:color(display-p3 0.9804 0.9843 0.9961);fill-opacity:1;"/>
<path d="M204.215 153.125C203.823 153.125 203.613 152.943 203.425 152.591C203.016 151.824 202.249 151.381 201.204 151.381C199.425 151.381 198.215 152.75 198.215 155.17C198.215 157.602 199.38 158.983 201.227 158.983C202.863 158.983 203.846 158.068 203.88 156.625H202.062C201.619 156.625 201.38 156.386 201.38 155.943V155.455C201.38 155.011 201.619 154.773 202.062 154.773H205.567C206.011 154.773 206.249 155.011 206.249 155.455V156.239C206.249 159.301 204.153 161.159 201.215 161.159C197.937 161.159 195.721 158.875 195.721 155.193C195.721 151.42 198.09 149.205 201.164 149.205C203.499 149.205 205.357 150.477 205.971 152.375C206.119 152.835 205.846 153.125 205.369 153.125H204.215Z" fill="#2E2F38" style="fill:#2E2F38;fill:color(display-p3 0.1804 0.1843 0.2196);fill-opacity:1;"/>
</g>
</svg>
