<svg width="520" height="156" viewBox="0 0 520 156" fill="none" xmlns="http://www.w3.org/2000/svg">
<path fill-rule="evenodd" clip-rule="evenodd" d="M102.734 4.25796L104.968 4.99059L107.216 5.74259L107.92 8.17859L108.624 10.6186L108.748 18.8706L108.652 27.2306L108.856 34.2106L108.784 41.1906L108.888 43.6866L108.924 46.0146L107.828 48.3026L107.032 50.6466L106.54 51.2986L105.864 51.7346L105.012 51.7626L104.304 52.1946L103.996 51.8306L103.804 52.1426L102.676 51.7586L101.58 52.1306L98.8764 51.3506L96.1564 50.6466L95.3604 48.3026L94.5604 45.9626L94.2644 37.4666L94.2404 28.7226L94.6524 22.8986L94.4804 17.1066L85.7964 17.1266L76.9164 17.0226L73.0884 17.3146L69.5564 17.3786L69.3244 17.2946L69.9324 17.4186L69.5124 18.2786L69.7324 19.1346L69.8404 20.8506L69.7484 22.5666L69.4004 25.5706L69.5804 28.5706L69.6844 31.1466L69.7924 33.7186L69.6924 35.8626L69.7204 38.0066L69.4484 46.3706L69.6964 54.7346L69.4324 56.0226L69.8764 57.3106L69.3044 66.7466L69.8044 76.1826L69.8484 85.8306L69.5404 95.4826L69.3644 99.0586L69.7564 102.655L71.5404 102.951L73.4044 102.707L77.7764 103.163L82.1444 102.603L86.9284 102.711L91.6844 102.499L93.9044 103.523L96.1564 104.275L96.8604 106.711L97.5604 109.147L96.8604 111.635L96.1564 114.119L93.9044 114.819L91.6564 115.523L88.2164 115.311L84.9524 115.703L82.6204 115.751L80.2884 115.747L78.5404 115.879L76.7884 115.679L72.8524 115.503L68.9164 115.787L62.9404 115.663L56.9644 115.743L54.6324 115.899L52.3004 115.731L48.6564 115.363L45.0124 115.635L43.7004 115.215L42.3884 115.731L38.0004 115.195L33.3124 115.839L31.0444 114.819L28.7484 114.119L28.0924 111.635L27.4364 109.147L28.0924 106.711L28.7484 104.275L31.0444 103.523L33.3444 102.775L34.1844 102.671L35.1124 102.503L44.7924 102.559L54.4724 102.563L55.0324 102.635L55.3244 102.767L55.5244 95.2426L55.1164 87.7626L55.6124 79.6106L55.4204 71.4626L55.8564 62.6706L55.1844 53.8746L55.8204 47.2266L55.1364 40.5786L55.1044 38.8626L55.4364 37.1466L55.6404 32.0026L55.4324 26.8546L55.1644 25.3546L55.2044 23.8506L55.1044 20.2706L55.2044 17.1026L53.8924 16.6666L52.5884 17.3466L45.5164 16.9026L38.4444 17.1266L34.4564 16.9546L30.5604 17.0986L30.3164 21.6746L30.4404 26.2586L30.6084 28.9386L30.4644 31.6186L30.4964 37.6306L30.5164 43.6386L30.4884 44.8226L30.4924 45.9746L29.6404 48.3026L28.8444 50.6466L26.1244 51.3506L23.4044 52.0546L20.6884 51.3506L17.9684 50.6466L17.1724 48.3026L16.3764 45.9626L16.7204 36.3626L16.2204 27.0546L16.1364 24.1386L16.0404 21.2226L16.5564 15.9986L15.9844 10.5866L17.0324 8.17859L17.6884 5.74259L19.9844 4.99059L22.2804 4.24259L30.8284 3.99859L39.5724 3.95859L45.2044 4.42259L50.8324 4.23459L57.6724 4.47059L64.5084 3.85059L71.1444 3.93059L77.7804 4.04259L80.1924 4.49459L82.6084 4.10659L91.2564 4.63059L99.9004 4.07059L101.108 4.09859L102.312 4.16259L102.48 4.32659L102.732 4.25859L102.734 4.25796Z" fill="#2E2F38" style="fill:#2E2F38;fill:color(display-p3 0.1804 0.1843 0.2196);fill-opacity:1;"/>
<path fill-rule="evenodd" clip-rule="evenodd" d="M238.803 4.278L240.97 4.99063L243.218 5.74262L243.922 8.17863L244.626 10.6186L243.922 13.1026L243.218 15.5866L240.97 16.2906L238.718 16.9906H235.53H232.342L230.142 20.2386L228.494 23.6826L227.486 24.1426L227.606 25.3146L224.418 30.2386L221.21 35.1466L217.282 41.7906L213.13 48.2906L209.098 53.7826L206.034 59.8706L202.89 64.7626L199.894 69.4666L199.698 72.3266L200.058 75.2386L199.342 82.6666L199.894 90.0906L199.454 96.3266L199.858 102.611L206.99 102.555L214.442 102.475L217.57 103.023L220.91 102.731L223.158 103.523L225.406 104.275L225.754 105.159L226.43 105.867L226.574 107.523L226.926 109.159L226.11 111.635L225.406 114.119L224.018 114.959L222.53 115.647L221.71 115.831L220.914 115.895L219.846 115.691L218.65 115.655L214.982 115.419L211.314 115.879L206.094 115.679L200.874 115.707L197.066 115.455L193.254 115.827L191.702 115.571L190.15 115.887L185.494 115.899L180.838 115.867L174.206 115.563L167.574 115.659L166.166 115.919L164.754 115.859L164.638 115.463L164.374 115.851L162.17 114.819L159.874 114.119L159.218 111.635L158.562 109.147L159.218 106.711L159.874 104.275L162.17 103.523L164.47 102.775L168.91 102.495L173.582 102.575L179.566 102.911L185.454 102.631L185.854 94.0986L185.578 85.5866L185.342 83.4146L185.618 81.2466L185.786 79.2466L185.506 77.2426L185.59 73.2946L185.502 69.4346L184.17 67.3226L182.842 64.9746L178.234 56.7786L172.902 49.0226L172.758 48.3866L172.314 47.9386L167.362 39.9546L162.27 32.0506L159.778 28.3386L157.51 24.4866L156.674 23.0146L155.938 21.4746L154.402 19.2546L153.05 17.3426L149.938 16.9906H146.658L144.358 16.2906L142.062 15.5866L141.578 15.1386L141.238 14.5506L140.926 12.5866L140.586 10.6066L141.406 8.17863L142.062 5.74262L144.358 4.99063L146.658 4.24262L149.642 4.27062L152.606 4.05862L156.99 4.61862L161.374 4.13463L167.01 4.35063L172.646 4.03462L175.246 4.39463L178.022 3.89062L180.218 4.99063L182.47 5.74262L183.17 8.17863L183.874 10.6186L183.17 13.1026L182.47 15.5866L180.218 16.2906L177.97 16.9906H173.61H169.25L170.818 19.7706L172.862 22.1546L176.042 28.2466L179.878 33.9346L180.138 34.3066L180.49 34.6146L182.754 38.4986L185.03 42.3786L186.594 45.6346L188.67 48.5826L188.774 49.1746L189.466 49.4066L190.078 50.4826L190.682 51.5666L191.318 53.5586L192.45 55.0746L196.63 48.9106L200.27 42.2866L203.486 37.1266L206.878 32.0746L209.606 27.2746L212.634 22.6586L214.282 20.7666L215.35 18.5186L215.294 17.9546L215.658 17.6506L215.966 17.2226L216.274 17.2746L213.266 16.9906H210.218L207.922 16.2906L205.626 15.5866L204.97 13.1026L204.314 10.6186L204.394 9.98663L204.25 9.31862L204.77 7.46263L205.386 5.47063L207.922 4.99063L210.218 4.24262L216.722 4.45863L223.042 4.15062L227.674 4.39463L232.306 4.15062L235.418 4.47462L238.802 4.27863L238.803 4.278Z" fill="#2E2F38" style="fill:#2E2F38;fill:color(display-p3 0.1804 0.1843 0.2196);fill-opacity:1;"/>
<path fill-rule="evenodd" clip-rule="evenodd" d="M333.761 4.20976L342.342 5.23038L350.867 6.71838L353.09 7.49438L355.302 8.29038L357.503 9.84238L359.711 11.3384L363.991 16.3904L368.73 21.0624L371.035 29.2144L373.451 37.3144L373.386 38.5664L373.395 39.7864L371.786 47.1264L370.914 54.6264L369.786 56.5384L368.683 58.3944L361.874 64.4744L355.122 70.6184L352.382 71.6664L349.73 73.1104L341.69 73.7624L333.783 75.2304L331.131 74.7304L328.682 75.2424L322.847 74.7344L317.007 75.0224L314.915 74.9704L312.819 75.1464L312.271 74.9224L311.938 75.0464L311.918 75.8904L311.867 77.0184L311.938 85.2344L311.994 93.4464L311.494 98.0184L311.854 102.534L320.086 103.01L328.255 102.638L330.222 102.866L332.19 102.534L333.111 103.006L334.266 102.558L336.466 103.522L338.718 104.274L339.423 106.71L340.123 109.146L339.423 111.634L338.718 114.118L336.466 114.818L334.218 115.522L330.182 115.154L326.454 115.706L325.291 115.15L324.126 115.694L322.058 115.854L319.986 115.866L318.174 115.91L316.362 115.634L314.294 115.506L312.222 115.766L304.33 115.87L296.434 115.798L289.418 115.594L282.458 115.666L280.366 114.814L278.166 114.474L278.062 114.222L277.747 114.158L277.219 111.634L276.562 109.146L277.219 106.71L277.875 104.274L280.171 103.522L282.466 102.774H290.062H297.654L298.014 102.198L297.551 101.918L297.378 101.062L297.535 100.202L297.291 93.1264L297.51 86.0504L297.931 79.4024L297.538 72.7544L297.403 62.8904L297.39 53.0224L297.683 43.8024L297.546 34.5784L297.594 34.1504L297.551 33.7224L297.802 26.4304L297.267 19.1384L297.451 17.9824L297.631 17.1584L290.062 16.9904H282.466L280.171 16.2904L277.875 15.5864L277.219 13.1024L276.562 10.6184L277.219 8.17838L277.875 5.74238L280.171 4.99038L282.466 4.24238L290.483 4.09838L298.618 4.19438L302.338 4.34238L306.055 4.22638L312.083 3.97838L318.111 4.15038L322.727 4.10638L327.342 3.94238L330.659 3.97038L333.763 4.21038L333.761 4.20976ZM311.73 61.9552L316.182 62.0624L320.746 61.7824L326.179 62.3784L331.778 62.1384L335.062 61.7544L338.334 61.6424L345.159 59.3744L351.538 56.0544L353.311 54.9144L354.379 53.0984L356.715 46.5264L358.318 39.7224L358.106 39.5104L358.15 39.3464L355.998 32.1984L353.43 25.2024L352.587 24.0704L351.459 23.1824L345.914 20.6704L340.426 18.0704L338.09 17.4104L335.631 17.2424L333.71 17.0304L331.775 17.3864L323.278 17.2904L314.527 17.0024L313.174 16.8624L311.775 17.0584L311.651 18.1504L311.859 19.2504L311.463 27.0464L312.114 34.8384L311.999 39.6984L312.083 44.5544L311.91 45.9104L311.819 47.2664L311.55 54.1584L311.966 61.0504L311.35 61.4624L311.73 61.9544L311.73 61.9552Z" fill="#2E2F38" style="fill:#2E2F38;fill:color(display-p3 0.1804 0.1843 0.2196);fill-opacity:1;"/>
<path fill-rule="evenodd" clip-rule="evenodd" d="M455.018 0.801656L461.168 1.84878L467.372 2.28078L468.444 2.82478L469.572 3.03678L470.812 3.73678L472.272 3.80878L474.272 5.02478L476.552 5.61678L478.592 7.14078L481.012 8.07278L485.876 12.3808L490.776 16.6808L493.92 22.7208L497.96 28.1368L498.328 28.3008L498.272 28.6528L499.276 32.3368L501.184 35.7048L502.772 45.1848L504.384 54.6528L504.388 56.7848L504.584 58.9168L503.276 66.3328L503.232 73.8688L501.056 79.4648L499.936 85.3288L499.452 85.3928L499.732 85.7448L499.016 87.5008L498.328 89.3168L492.076 97.1408L486.488 105.461L483.408 107.193L480.908 109.677L473.64 112.157L466.696 115.369L460.804 115.605L455.004 116.949L449.412 116.077L443.824 115.545L442.872 115.405L441.896 115.281L437.52 113.517L433.048 111.985L431.108 110.641L429.036 109.557L425.1 106.553L421.264 103.421L420.6 102.277L419.604 101.457L416.328 97.0248L413.344 92.3848L412.552 90.7848L411.548 89.2888L410.496 87.1128L409.856 84.7648L408.108 76.5368L406.008 68.3808L405.704 63.6368L405.568 58.8968L405.952 51.8808L406.496 44.8568L408.14 39.4808L409.444 34.0448L410.864 31.4768L411.7 28.6648L416.008 22.3528L420.088 15.8888L424.468 11.9488L429.092 8.31278L434.344 5.76078L439.636 3.29278L443.456 2.27278L447.332 1.54078L451.172 1.36478L455.016 0.800781L455.018 0.801656ZM455.018 15.1647L448.44 16.3968L441.868 17.6768L439.476 19.2488L437.016 20.5728L431.168 26.7928L425.84 33.4888L425.54 34.2648L425.232 35.0568L424.876 35.3088L425.02 35.7368L423.272 41.3848L421.48 47.0168L420.792 52.2808L420.628 57.5848L420.824 58.2448L420.888 58.9048L420.316 59.1008L420.864 59.2888L420.396 62.0168L420.896 64.7088L421.16 66.2928L421.276 67.8848L421.604 71.8848L422.796 75.7048L423.348 79.0568L424.976 82.0448L426.056 84.1648L426.94 86.4088L428.916 88.8128L430.52 91.4808L433.732 94.3328L436.84 97.3048L439.032 98.2928L441.1 99.3808L446.76 101.229L452.636 102.273L453.784 102.461L454.984 102.565L461.104 101.445L467.184 100.221L470.072 98.7088L472.876 97.1168L479.18 90.1728L484.688 82.5408L484.996 82.4168L485.028 82.0888L485.812 80.0968L486.624 78.1248L488.128 72.6608L488.668 67.0168L489.652 63.0048L489.268 58.9128L488.316 51.3888L487.7 43.8328L486.168 39.8448L485.12 35.6768L484.376 33.8208L483.408 32.0768L479.264 26.9408L474.992 21.9128L474.276 20.8448L473.092 20.3768L467.028 18.3128L461.156 15.8568L458.14 15.1048L455.016 15.1648L455.018 15.1647Z" fill="#2E2F38" style="fill:#2E2F38;fill:color(display-p3 0.1804 0.1843 0.2196);fill-opacity:1;"/>
<path fill-rule="evenodd" clip-rule="evenodd" d="M5.15856 145.482L2.556 148.059L0 150.459L2.556 152.859L5.112 155.259L5.212 154.595L5.052 154.011L4.988 149.783L5.16 145.483L5.15856 145.482ZM4.95056 155.318L8.468 154.575L11.86 154.119L14.368 152.779L16.864 151.431L18.952 149.739L20.944 147.927L21.804 147.311L22.316 146.331L27.156 143.639L31.94 140.859L31.832 139.775L31.808 138.603L31.872 134.903L31.936 131.311L24.712 134.043L17.676 137.255L16.228 138.683L14.696 140.123L9.896 142.879L5.112 145.659V150.459L4.952 155.319L4.95056 155.318ZM31.853 140.874L32.896 140.879L33.944 140.843L37.784 143.571L41.52 146.407L48.612 150.663L55.72 154.875L57.2 155.203L58.624 155.211L58.772 150.459V145.659L56.42 145.107L54.06 144.539L51.604 142.343L49.152 140.155L47.576 138.395L45.788 136.887L42.564 134.639L39.2 132.587L35.56 132.015L32.012 131.319L31.94 136.059L31.852 140.875L31.853 140.874ZM58.7316 155.27L61.576 154.975L64.296 154.423L70.136 150.395L75.932 146.287L77.696 144.803L79.248 143.067L79.984 142.567L80.676 141.947L83.132 141.327L85.532 140.827L85.604 136.059V131.259L77.768 135.011L69.864 138.615L69.064 139.295L68.408 140.207L63.556 142.879L58.772 145.659V150.459L58.732 155.271L58.7316 155.27ZM85.594 140.862L90.388 143.639L95.172 146.419L98.848 149.419L102.388 152.531L107.352 154.063L112.432 155.139L112.392 153.979L112.432 152.667L112.54 151.059L112.264 149.451V147.487L112.42 145.671L107.648 142.879L102.864 140.099L98.368 136.603L93.968 132.987L89.764 132.223L85.648 131.307L85.604 136.059L85.596 140.863L85.594 140.862ZM112.324 155.31L116.54 154.271L120.684 153.535L124.192 151.031L127.68 148.499L128.66 147.435L129.6 146.279L134.48 143.639L139.264 140.859L139.344 138.907L139.112 137.019L139.108 134.075L139.204 131.419L134.576 132.403L129.908 133.555L126 136.867L122.032 140.147L117.216 142.879L112.432 145.659V150.459L112.324 155.311L112.324 155.31ZM139.191 140.95L144.048 143.639L148.832 146.419L154.188 150.235L159.504 154.059L162.788 154.583L166.072 155.243L166.092 150.459V145.659L161.308 142.879L156.524 140.099L153.2 137.215L149.928 134.275L149.32 133.727L148.468 133.619L147.78 133.135L147 132.927L143.156 131.971L139.344 131.363L139.392 134.855L139.464 138.555L139.088 139.635L139.192 140.951L139.191 140.95ZM165.977 155.342L171.636 153.439L177.22 151.851L180.352 149.227L183.328 146.387L185.588 144.215L187.952 142.135L190.504 141.715L192.888 140.823L192.924 139.011L192.888 137.163L192.852 134.183L192.888 131.363L187.892 132.435L182.956 133.915L179.196 136.863L175.684 140.131L170.876 142.879L166.092 145.659V150.459L165.976 155.343L165.977 155.342ZM192.824 140.898L195.436 141.559L198.028 142.119L200.148 144.411L202.592 146.299L207.168 150.271L212.08 153.807L215.936 154.399L219.712 155.167L219.648 152.975L219.688 150.603L219.86 148.175L219.748 145.667L214.968 142.879L210.184 140.095L208.984 139.063L207.96 137.919L200.464 134.547L192.932 131.291L192.924 136.059L192.824 140.899V140.898ZM219.75 155.278L225.156 153.799L230.468 152.059L231.908 151.303L233.056 150.111L234.956 148.191L236.912 146.271L241.8 143.639L246.584 140.859V136.059V131.259L238.72 134.955L230.888 138.703L230.06 139.307L229.412 140.183L227.876 141.403L226.596 142.883L223.216 144.371L219.872 145.735V149.403L219.932 153.243L219.86 154.295L219.752 155.279L219.75 155.278ZM246.533 140.89L251.368 143.639L256.156 146.419L257.76 147.955L259.352 149.423L266.348 152.403L273.432 155.143L273.392 153.299L273.24 151.323L273.596 150.507L273.328 149.691L273.592 147.747L273.296 145.779L268.632 142.879L263.848 140.099L259.324 136.307L254.52 132.895L250.572 132.047L246.632 131.303L246.584 136.059L246.532 140.891L246.533 140.89ZM273.391 155.394L282.048 150.839L290.676 146.419L295.46 143.639L300.244 140.859V136.059V131.259L297.192 131.747L294.164 132.307L291.912 133.115L289.828 134.291L287.076 136.367L284.496 138.683L283.732 139.371L283.004 140.119L278.2 142.879L273.416 145.659L273.272 147.999L273.572 150.219L273.376 152.723L273.392 155.395L273.391 155.394ZM300.246 140.858L305.032 143.639L309.816 146.419L316.152 150.419L322.36 154.583L324.68 154.983L327.032 155.235L327.076 150.459V145.659L322.292 142.879L317.508 140.099L313.548 136.743L309.536 133.459L304.888 132.391L300.352 131.395L300.244 136.059V140.859L300.246 140.858ZM327.092 155.45L335.708 150.839L344.336 146.419L349.124 143.639L353.908 140.859V136.059V131.259L351.4 131.627L348.9 131.919L346.104 133.175L343.24 134.287L341.716 135.523L340.1 136.651L338.284 138.283L336.7 140.179L331.86 142.879L327.076 145.659L326.956 149.451L327.092 153.147L326.988 154.167L327.092 155.451V155.45ZM353.775 140.894L355.508 141.163L357.144 141.323L360.248 143.955L363.52 146.367L367.396 149.587L371.232 152.831L374.244 154.027L377.396 154.863L379.056 155.027L380.68 155.239L380.736 150.459V145.659L375.952 142.879L371.168 140.099L364.672 136.047L358.3 131.815L356.136 131.455L353.944 131.279L353.908 136.059L353.776 140.895L353.775 140.894ZM380.705 155.294L387.88 152.595L394.884 149.583L396.388 147.951L397.956 146.359L402.784 143.639L407.568 140.859V136.059V131.259L403.432 132.099L399.328 133.039L397.888 133.743L396.532 134.599L393.324 137.239L390.416 140.227L386.98 142.635L383.804 145.407L382.204 145.311L380.828 145.687L380.736 150.459L380.704 155.295L380.705 155.294ZM407.536 140.89L412.352 143.639L417.136 146.419L420.74 149.503L424.316 152.603L429.304 154.135L434.404 155.163L434.436 154.043L434.332 152.859L434.416 149.267L434.244 145.727L432.744 145.243L431.028 145.127L427.872 142.683L424.788 140.167L416.2 135.679L407.568 131.259L407.436 134.195L407.676 137.019L407.488 138.907L407.536 140.891V140.89ZM434.336 155.342L442.296 151.811L450.036 148.043L450.956 147.351L451.548 146.311L452.284 145.879L452.688 145.063L457.052 143.131L461.06 140.759L461.228 136.059V131.259L456.268 132.315L451.428 133.815L448.864 135.891L446.16 137.835L444.98 138.887L444.036 140.183L440.224 142.631L436.756 145.571L435.552 145.711L434.492 145.679L434.4 150.459L434.336 155.343V155.342ZM461.08 140.914L462.848 141.051L464.488 141.283L467.736 143.747L470.908 146.263L476.788 150.447L482.724 154.547L485.356 155.107L487.928 155.179L488.06 150.459V145.659L486.044 145.427L484.024 144.979L481.284 142.495L478.392 140.239L471.36 135.899L464.34 131.523L462.804 131.247L461.34 131.419L461.096 132.515L461.412 133.659L461.108 137.211L461.08 140.915V140.914ZM488.044 155.266L493.204 153.947L498.28 152.399L499.732 151.699L500.976 150.643L503.248 148.631L505.232 146.291L510.104 143.639L514.888 140.859L514.876 138.727L514.788 136.587L514.752 133.867L514.9 131.391L507.16 134.791L499.396 138.239L498.456 139.111L497.716 140.183L497.104 140.683L496.58 141.271L495.036 142.767L493.356 144.111L490.7 144.875L488.072 145.663L488.06 150.459L488.044 155.267V155.266ZM514.7 140.914L515.948 140.523L516.928 140.267L518.5 138.211L519.924 136.079L517.444 133.659L514.888 131.259V136.059L514.7 140.915V140.914Z" fill="#DC6B6E" style="fill:#DC6B6E;fill:color(display-p3 0.8627 0.4196 0.4314);fill-opacity:1;"/>
</svg>
